<svg width="179" height="290" viewBox="0 0 179 290" fill="none" xmlns="http://www.w3.org/2000/svg">
<g id="pig1">
<g id="plegl1">
<ellipse id="Ellipse 44" cx="61.9294" cy="242.652" rx="12.4633" ry="33.8554" fill="url(#paint0_radial_26_254)"/>
<path id="Ellipse 45" d="M74.6477 279.121C74.706 276.597 73.4453 274.199 71.143 272.453C68.8407 270.708 65.6853 269.758 62.371 269.813C59.0567 269.868 55.8549 270.923 53.4701 272.746C51.0853 274.569 49.7128 277.011 49.6544 279.534L62.1511 279.328L74.6477 279.121Z" fill="#584C4C"/>
</g>
<g id="plegr1">
<ellipse id="Ellipse 42" cx="113.144" cy="239.296" rx="11.4496" ry="35.5" fill="url(#paint1_radial_26_254)"/>
<path id="Ellipse 46" d="M123.48 278.537C123.534 275.891 122.376 273.376 120.261 271.546C118.146 269.715 115.247 268.719 112.202 268.777C109.157 268.834 106.216 269.941 104.025 271.852C101.834 273.764 100.573 276.325 100.52 278.971L112 278.754L123.48 278.537Z" fill="#584C4C"/>
</g>
<g id="parmr1">
<ellipse id="Ellipse 44_2" cx="134.633" cy="196.502" rx="10.4492" ry="35.5" transform="rotate(-5.69855 134.633 196.502)" fill="url(#paint2_radial_26_254)"/>
<path id="Ellipse 46_2" d="M152.793 238.238C152.411 236.336 151.663 234.428 150.608 232.661C149.552 230.893 148.216 229.314 146.704 228.044C145.192 226.774 143.544 225.849 141.887 225.339C140.23 224.829 138.609 224.748 137.149 225.103C135.689 225.458 134.429 226.239 133.466 227.385C132.503 228.531 131.864 230.013 131.597 231.714C131.331 233.416 131.444 235.293 131.929 237.199C132.413 239.105 133.255 240.99 134.391 242.708L142.27 237.32L152.793 238.238Z" fill="#584C4C"/>
</g>
<g id="parml1">
<ellipse id="Ellipse 44_3" cx="31.561" cy="200.571" rx="10.4492" ry="35.5" transform="rotate(-0.940515 31.561 200.571)" fill="url(#paint3_radial_26_254)"/>
<path id="Ellipse 45_2" d="M40.5398 234.649C40.1707 232.622 39.4756 230.684 38.5081 228.982C37.5407 227.28 36.3268 225.862 34.9603 224.835C33.5938 223.809 32.1113 223.203 30.6274 223.064C29.1435 222.925 27.6979 223.256 26.4024 224.032C25.107 224.809 23.9963 226.009 23.1562 227.541C22.3161 229.073 21.7692 230.895 21.5577 232.867C21.3462 234.839 21.4758 236.907 21.9364 238.913C22.397 240.918 23.1764 242.807 24.2142 244.432L31.1512 236.359L40.5398 234.649Z" fill="#584C4C"/>
</g>
<ellipse id="pbody1" cx="83" cy="175.862" rx="56" ry="59" fill="url(#paint4_radial_26_254)"/>
<g id="phead1">
<g id="earl1">
<path id="Ellipse 51" d="M30.4379 73.6493C27.8853 69.8269 25.7581 65.7745 24.178 61.7235C22.5978 57.6725 21.5955 53.7021 21.2283 50.0391C20.8612 46.3761 21.1363 43.0923 22.038 40.375C22.9398 37.6577 24.4504 35.5602 26.4838 34.2023C28.5171 32.8444 31.0333 32.2527 33.8888 32.4609C36.7442 32.6691 39.8829 33.6732 43.1256 35.4159C46.3684 37.1585 49.6517 39.6055 52.7882 42.6173C55.9246 45.629 58.8527 49.1465 61.4053 52.9689L45.9216 63.3091L30.4379 73.6493Z" fill="#FFE3E3"/>
<ellipse id="Ellipse 53" cx="23.8997" cy="52.4695" rx="12.7664" ry="23.5267" transform="rotate(34.7506 23.8997 52.4695)" fill="#FFF1F1"/>
</g>
<g id="earr1">
<path id="Ellipse 54" d="M105.675 61.4491C108.172 57.59 111.049 54.0303 114.141 50.9733C117.233 47.9162 120.481 45.4217 123.698 43.632C126.915 41.8424 130.039 40.7928 132.891 40.543C135.743 40.2933 138.267 40.8484 140.32 42.1766C142.373 43.5047 143.914 45.58 144.855 48.2839C145.797 50.9878 146.119 54.2673 145.806 57.9352C145.492 61.6032 144.547 65.5877 143.026 69.6613C141.505 73.7349 139.437 77.8178 136.94 81.6769L121.308 71.563L105.675 61.4491Z" fill="#FFE3E3"/>
<ellipse id="Ellipse 55" cx="142.399" cy="58.3096" rx="12.7664" ry="23.4889" transform="rotate(-52.3937 142.399 58.3096)" fill="#FFF1F1"/>
</g>
<ellipse id="Ellipse 37" cx="82" cy="106.362" rx="64" ry="61.5" fill="url(#paint5_radial_26_254)"/>
<ellipse id="Ellipse 39" cx="66.5" cy="137.362" rx="27.5" ry="20.5" fill="url(#paint6_radial_26_254)"/>
<ellipse id="Ellipse 40" cx="71.0966" cy="145.125" rx="5" ry="4.5" transform="rotate(-1.42544 71.0966 145.125)" fill="#B38282"/>
<ellipse id="Ellipse 41" cx="51.9034" cy="137.6" rx="5" ry="4.5" transform="rotate(-1.42544 51.9034 137.6)" fill="#B38282"/>
<ellipse id="Ellipse 46_3" cx="107.5" cy="109.862" rx="8.5" ry="14" fill="white"/>
<ellipse id="Ellipse 47" cx="49.5" cy="94.8621" rx="8.5" ry="14" fill="white"/>
</g>
<path id="hair1" d="M80.4485 51.7984C80.596 51.1127 80.74 50.1507 80.7996 49.4066C80.819 49.17 80.8684 49.2916 80.8826 49.1263C80.9087 48.8048 80.8797 48.5212 80.8936 48.2018C80.8982 48.0962 80.9869 48.2245 80.9897 48.1134C81.0021 47.4912 80.934 46.9353 80.8789 46.3102C80.5931 43.2361 79.8079 40.2786 78.8853 37.2496C78.579 36.2494 78.245 35.0262 77.8543 34.0148C77.8087 33.8971 77.7641 33.9924 77.7504 33.9718C77.5379 33.6479 77.7197 33.7164 77.6565 33.4784C77.4051 32.5346 77.0403 31.5107 76.6892 30.6349C76.5393 30.2615 76.5405 30.6901 76.4785 30.2824C76.4741 30.2542 76.5826 30.3227 76.5526 30.2166C76.4843 29.9758 76.3091 29.5396 76.2492 29.3587C76.1336 29.0079 76.1092 28.9438 75.9884 28.6122C75.822 28.1528 75.67 27.6239 75.4722 27.1303C75.4304 27.0266 75.4053 27.1929 75.3319 27.0301C75.2581 26.8668 75.1067 26.4255 75.0725 26.2731C75.038 26.1202 75.1197 26.1615 75.1241 26.1307C75.1647 25.8821 74.8233 25.422 74.7961 25.3561C74.3109 24.1817 74.0602 23.1324 73.7161 21.9676C73.4649 21.1132 73.1871 20.1827 73.0292 19.2904C72.8674 18.2921 72.7639 17.3355 73.0123 16.2584C73.0439 16.1417 72.9137 16.2535 72.9552 16.1089C73.1232 15.3391 73.9721 14.5732 74.7552 14.5082C75.5755 14.3862 76.3027 14.5631 76.9419 14.7603C77.079 14.8042 76.8785 14.8353 77.0138 14.8843C77.4739 15.0489 77.8885 15.2564 78.3715 15.4536C78.8739 15.6597 79.2712 15.7887 79.568 15.7273C80.0465 15.9626 80.7631 16.3427 81.1089 16.6103C81.3634 16.7992 81.0503 16.7334 81.4118 16.8846C81.494 16.9195 81.4299 16.7947 81.5508 16.8527C81.9108 17.0257 82.2948 17.2492 82.6896 17.4674L82.6529 17.4487C82.8168 17.5171 82.9792 17.5812 83.1386 17.6372C83.249 17.6758 83.2478 17.5981 83.2832 17.5995C83.5782 17.6148 83.9316 17.9497 84.0185 17.9993C84.6795 18.3764 85.1975 18.5462 85.8328 18.7972C85.98 18.8552 85.8403 18.6987 85.9831 18.7512C86.7056 19.0176 87.51 19.3245 88.2501 19.6284C88.4142 19.696 88.2336 19.7187 88.3107 19.7549C88.6508 19.913 88.7781 19.7947 89.1021 19.9389C89.1704 19.969 89.1087 20.0214 89.1191 20.033C89.2828 20.214 89.5103 20.1104 89.5628 20.1237C90.2369 20.2899 90.5576 20.5759 91.2358 20.753C91.3159 20.7736 91.1625 20.6365 91.3859 20.699C92.9011 21.1206 94.2861 21.5018 95.8123 21.8985C96.0392 21.9574 95.8622 21.9874 95.8749 21.9984C96.0843 22.1722 96.2698 22.0359 96.345 22.0445C96.9379 22.1169 97.4497 22.354 97.8697 22.2197C100.375 22.7152 102.858 22.8277 105.333 22.9753C105.365 22.9769 105.308 23.0616 105.373 23.0644C106.151 23.0954 105.998 22.9666 106.49 22.786C106.613 22.7405 107 22.9097 107.034 22.921C107.159 22.9647 107.042 23.0975 107.083 23.1048C107.431 23.159 107.317 22.7559 107.8 22.713C107.815 22.7123 107.759 22.7936 107.8 22.7974C107.927 22.8095 108.047 22.7673 108.17 22.7806C108.451 22.811 108.575 22.9997 108.973 22.8299C109.023 22.8075 108.915 22.5883 109.32 22.5407C109.49 22.5225 110.157 22.4068 110.389 22.3751C110.599 22.3497 110.471 22.4513 110.487 22.4516C111.062 22.4374 110.859 22.5197 111.167 22.6039C111.474 22.6851 111.319 22.3604 111.42 22.2967C111.521 22.2335 111.927 22.2156 112.028 22.2173C112.129 22.2198 112.025 22.2975 112.112 22.2906C112.692 22.24 112.306 22.0561 112.469 21.9519C112.883 21.6932 113.302 21.8283 113.705 21.7103C113.812 21.6783 113.706 21.6542 113.798 21.6146C114.163 21.4549 114.384 21.4558 114.788 21.1984C114.855 21.1564 115.127 20.8609 115.387 20.859C115.424 20.8589 115.368 20.9596 115.526 20.8968C115.763 20.8036 116.163 20.6024 116.375 20.4509C116.546 20.3308 116.287 20.3616 116.527 20.2552C116.633 20.2073 116.483 20.3731 116.68 20.2779C116.879 20.1843 117.325 19.8784 117.482 19.7562C117.642 19.6352 117.505 19.6357 117.515 19.6216C117.578 19.5377 117.838 19.2822 117.873 19.252C119.191 18.1527 120.303 16.8976 120.709 15.2628C120.739 15.1349 120.634 15.198 120.638 15.1783C120.707 14.7389 120.849 15.1338 120.989 14.8364C120.809 14.848 120.882 14.6721 120.901 14.3563C120.909 14.2043 120.833 14.2796 120.828 14.2651C120.75 14.0358 120.885 13.8922 120.914 13.8514C121.019 13.7048 120.901 13.5402 120.964 13.4373C121.026 13.3316 121.134 13.5693 121.119 13.2563C121.052 13.1738 120.903 13.4087 120.863 13.1806C120.752 12.3305 120.342 10.7889 119.957 10.1568C119.621 9.55141 119.476 9.38849 119.243 9.03966C118.796 8.41469 118.878 8.71383 118.544 8.41776C118.2 8.12922 118.56 8.08341 118.562 7.99204C118.562 7.90071 118.465 7.89491 118.432 7.81199C118.398 7.72893 118.556 7.825 118.427 7.67801C118.3 7.52936 117.818 7.24172 117.718 7.24615C117.514 7.25686 117.591 7.5129 117.258 7.16503C117.238 7.14489 117.358 7.14266 117.28 7.06851C116.671 6.48518 115.842 5.91331 115.149 5.44507C115.049 5.37727 115.186 5.35763 115.127 5.31724C114.51 4.89826 114.666 5.15767 114.226 5.10319C114.415 4.96082 114.254 4.71857 113.754 4.46913C113.461 4.32486 113.47 4.43457 113.249 4.40364C113.183 4.39449 112.997 4.23728 112.939 4.26C112.749 4.33422 112.891 4.57162 112.388 4.28157C112.366 4.26866 112.472 4.22801 112.393 4.18869C111.88 3.9373 111.739 4.0431 111.162 3.84156C110.735 3.69308 109.976 3.33074 109.445 3.15045C109.531 2.92238 109.004 2.81769 108.746 2.91762C108.377 2.80281 108.055 2.72382 107.729 2.6142C107.619 2.57735 107.71 2.52861 107.698 2.51758C107.512 2.3458 107.322 2.46621 107.247 2.45404C106.445 2.31794 105.738 2.03748 104.963 2.00883C104.935 2.00795 104.861 2.1648 104.683 2.00581C104.671 1.99502 104.935 1.96676 104.581 1.89396C104.227 1.82105 103.556 1.61249 103.022 1.6098C102.893 1.60873 102.553 1.69578 102.308 1.5533C102.275 1.53402 102.32 1.49154 102.273 1.45783C102.123 1.35016 102.011 1.50662 101.836 1.33749C101.657 1.16788 101.317 1.01396 100.793 1.05429C100.776 1.05532 100.64 1.1756 100.48 1.15586C100.223 1.12406 99.8568 1.05826 99.5815 1.03318C99.4497 1.0212 99.5262 1.11261 99.5032 1.11198C98.6301 1.07786 97.908 0.949004 97.033 0.865516C96.8654 0.849433 96.3736 0.937701 96.0447 0.833125C95.6818 0.719153 96.0809 0.321376 95.2218 0.388579C94.8726 0.416331 94.4215 0.92501 93.7897 0.644351C92.5659 0.693076 91.5446 0.559814 90.3218 0.682868C90.2675 0.688342 90.0988 0.838149 89.9702 0.839664C89.7792 0.841609 89.6718 0.776729 89.5343 0.776523C88.9612 0.773952 88.4087 0.854759 87.9034 0.869792C87.7044 0.876113 87.7707 0.802287 87.5321 0.810424C87.2931 0.818889 87.1388 0.919898 86.8097 0.894046C86.561 0.874347 86.3012 0.70026 85.9671 0.700046C85.9664 0.887512 85.7389 0.898113 85.3333 0.976562C85.2553 0.99176 85.3443 1.05059 85.3077 1.06113C85.1587 1.10546 85.0141 1.0621 84.8722 1.10946C84.8376 1.12087 84.8408 1.18465 84.8129 1.19759C84.5758 1.30978 84.1582 1.19958 84.0857 1.18063C83.8092 1.10831 83.6898 1.20197 83.4789 1.1829C83.268 1.16399 83.5746 1.08995 83.3297 1.08887C82.8377 1.08543 82.2523 1.1518 81.7661 1.19861C81.5737 1.21753 81.7136 1.28886 81.6863 1.29353C81.2912 1.35576 80.8749 1.30984 80.6699 1.50342C80.3411 1.09867 80.4325 1.57206 79.8412 1.55247C79.7945 1.55081 79.7117 1.35152 79.8846 1.30059C80.0575 1.24971 80.3313 1.28356 80.5684 1.20938C80.6246 1.19178 80.9316 0.962452 80.975 0.946026C81.3152 0.816803 81.3963 1.12055 81.4165 1.13547C81.6443 1.29627 82.0173 1.04799 82.1195 1.02347C82.5933 0.910007 82.9697 0.918781 83.394 0.833656C83.6679 0.778877 83.6774 0.57426 83.8944 0.562179C84.6139 0.523246 84.8812 0.787239 85.5255 0.495269C85.6631 0.433376 85.5088 0.220672 86.0257 0.361518C86.0584 0.370307 86.4416 0.505912 86.6493 0.392581C86.6754 0.378272 86.6707 0.31372 86.7059 0.306209C86.9414 0.257217 87.1021 0.299842 87.3571 0.261627C87.6121 0.223457 87.9169 0.171672 88.2066 0.180812C88.3751 0.186389 88.6245 0.296809 88.7152 0.322826C88.9722 0.397727 89.2372 0.249007 89.396 0.346889C89.5556 0.44535 89.256 0.611915 89.6665 0.666095C89.6766 0.497592 89.7062 0.324073 89.7256 0.154357C90.6229 0.134128 91.486 0.175399 92.3447 0.167018C92.4512 0.165855 92.3423 0.0755149 92.4564 0.0720016C92.9384 0.0579673 93.3433 0.125243 93.8888 0.108546C94.3 0.0952177 94.7478 0.0103979 95.1683 1.04873e-05C95.419 0.200187 96.0368 0.158389 96.4747 0.198264C96.6282 0.212016 96.6153 0.262862 96.7232 0.285304C97.1293 0.369391 96.9467 0.189383 97.0603 0.168918C97.5546 0.0839185 97.5348 0.467364 98.1525 0.501677C98.1847 0.503375 98.5898 0.328524 98.644 0.320346C98.9896 0.26483 98.6946 0.39593 98.9046 0.428519C99.2869 0.488684 99.5466 0.561312 99.9928 0.545512C100.123 0.540587 100.443 0.445315 100.677 0.571116C100.708 0.587584 100.683 0.652968 100.708 0.659819C101.168 0.778746 101.203 0.569461 101.477 0.530348C101.738 0.489707 102.166 0.69559 102.248 0.750121C102.466 0.891097 102.063 0.771765 102.048 0.780963C101.882 0.887854 102.207 0.908808 102.447 0.954188C102.453 1.16577 102.789 1.20244 102.695 1.00066C102.684 0.978465 102.494 0.970488 102.447 0.954188C102.688 0.781478 103.065 0.810301 103.434 1.06385C103.606 1.18305 103.416 1.25612 103.981 1.3133C104.237 1.34011 104.164 1.18138 104.393 1.1824C104.918 1.18569 105.519 1.44014 106.091 1.54316C106.29 1.57884 106.115 1.4598 106.251 1.48168C106.614 1.53995 106.91 1.66972 107.264 1.72536C107.296 1.73033 107.239 1.63137 107.347 1.65695C108.167 1.85133 108.82 2.08453 109.709 2.36424C110.127 2.49469 110.86 2.6967 111.256 2.85457C111.942 3.12019 112.846 3.62773 113.423 3.86869C113.81 4.02992 113.761 3.9171 113.946 3.94435C114.288 3.98749 114.814 4.48764 114.863 4.55155C114.866 4.55335 114.521 4.38963 114.68 4.5233C114.742 4.65679 114.859 4.54977 114.863 4.55155C114.908 4.59491 115.543 4.98054 115.67 5.04341C115.741 5.0768 115.745 4.98736 115.781 5.00614C116.622 5.4367 117.537 6.06648 118.245 6.74572C118.258 6.75946 118.179 6.80602 118.211 6.83737C118.644 7.27745 118.983 7.47022 119.356 7.78531C119.71 8.0813 119.981 8.46026 120.027 8.77934C120.272 9.07828 120.486 9.5389 120.608 9.84437C120.726 10.1423 120.893 10.1049 120.91 10.1287C121.386 10.8649 121.476 11.3864 121.642 12.2806C121.725 12.6925 121.814 13.5709 121.791 14.0423C121.781 14.4173 121.711 14.6354 121.673 14.9782C121.667 15.0248 121.751 14.993 121.751 15.0076C121.759 15.409 121.616 15.1846 121.567 15.2546C121.381 15.503 121.278 15.6586 121.168 16.1187C121.144 16.2228 121.266 16.6265 121.186 16.8249C121.084 17.0788 121.046 16.9437 120.932 17.206C120.922 17.2283 120.977 17.2526 120.886 17.4063C120.49 18.079 119.883 18.7892 119.332 19.3395C119.253 19.4181 119.421 19.3842 119.307 19.4993C118.757 20.051 118.109 20.5495 117.47 20.9162C117.311 21.0066 117.371 20.8892 117.328 20.8944C117.065 20.9259 116.848 21.2536 116.807 21.2807C115.735 21.9933 114.706 22.2713 113.485 22.7594C113.424 22.7861 112.908 23.1405 112.64 23.0512C112.621 23.0459 112.352 22.9552 112.175 23.1148C112.164 23.1247 112.33 23.1671 112.075 23.2247C111.82 23.2821 111.415 23.4357 111.03 23.4229C110.909 23.419 110.601 23.3193 110.28 23.5065C110.263 23.5196 109.802 23.8915 109.585 23.7213C109.549 23.6929 109.552 23.4815 109.166 23.6447C109.092 23.6759 109.239 23.7037 109.038 23.7601C108.731 23.8466 108.303 23.8391 107.911 23.9694C107.841 23.9928 107.559 24.1614 107.332 24.0688C107.296 24.0544 107.357 23.9794 107.238 23.98C106.675 23.9821 106.074 24.056 105.474 24.0179C105.261 24.0041 105.368 23.8889 105.146 23.8607C104.919 23.8328 104.486 23.8016 104.271 23.8497C104.051 23.8979 104.289 24.0843 103.957 24.0916C102.499 24.1206 101.013 23.8923 99.5845 23.6919C99.3675 23.6612 99.5399 23.7498 99.2179 23.7076C97.9674 23.5495 96.0702 23.2576 95.0464 22.8817C94.2487 22.5882 95.3017 22.7407 94.6839 22.5539C94.3778 22.4615 94.0426 22.5974 93.9671 22.5859C93.2785 22.4872 92.8275 22.2728 92.2004 22.1304C92.0706 22.1008 92.1737 22.218 92.0632 22.1917C91.6855 22.1023 91.3 21.9516 90.9353 21.8502C90.7716 21.8048 90.7828 21.8764 90.6339 21.8262C90.2868 21.7092 90.0087 21.5938 89.6955 21.4297C89.6673 21.4148 89.8941 21.402 89.6454 21.3193C89.2424 21.1853 88.7562 20.9609 88.2625 20.8567C88.1158 20.8259 88.0615 20.9656 87.7916 20.7617C87.7348 20.7187 87.8765 20.5794 87.4698 20.599C87.4024 20.6028 86.7306 20.5822 86.4797 20.344C86.4155 20.2823 86.2841 20.0765 86.1143 20.0366C86.0911 20.0317 86.1503 20.14 86.0139 20.0965C85.5331 19.9415 85.038 19.7383 84.5359 19.5624C84.4017 19.5155 84.5668 19.6719 84.3675 19.5993C83.8192 19.3998 83.1453 19.0938 82.6166 18.8359C82.4218 18.7407 82.5866 18.7373 82.5751 18.7242C82.4206 18.5455 82.2521 18.5803 82.1538 18.5808L82.0707 18.5386C82.0519 18.5365 82.0358 18.5335 82.0232 18.528C81.5318 18.3111 81.2331 18.0563 80.8306 17.8613C80.7202 17.8079 80.7595 17.9181 80.7347 17.9126C80.4819 17.8542 80.7124 17.8183 80.5808 17.7304C80.2417 17.4995 79.7289 17.2438 79.3123 17.0559C79.1586 16.9867 79.2899 17.1499 79.1534 17.0876C78.4018 16.748 77.507 16.36 76.7302 16.088C76.5795 16.0358 76.6945 15.9955 76.6668 15.9712C76.4709 15.8001 76.145 15.8873 76.0839 15.892C75.7372 15.8976 75.6153 15.826 75.3768 15.8313C75.0686 15.8417 74.8082 15.901 74.6433 16.008C74.4962 16.1001 74.3736 16.2653 74.2895 16.5383C74.111 17.1224 74.1593 17.9585 74.2544 18.6667C74.5259 20.5047 74.9477 22.004 75.5521 23.7811C75.59 23.8905 75.6408 23.7501 75.6747 23.8441C76.114 25.0747 76.5326 26.3398 77.0151 27.5822C77.0546 27.6841 77.0832 27.5058 77.1494 27.6686C77.2855 28.0016 77.4412 28.4396 77.542 28.7956C77.5901 28.9661 77.4374 28.7697 77.4874 28.9409C77.6036 29.3396 77.7525 29.7629 77.9149 30.1653C77.9842 30.3366 77.9731 30.0439 78.0566 30.269C78.6218 31.788 79.1813 33.2919 79.6025 34.8921C79.6313 35.0018 79.4897 35.1545 79.5996 35.3708C79.6535 35.3717 79.7099 35.3518 79.764 35.3419C80.5482 37.5886 81.1815 39.8686 81.7135 42.215C81.7361 42.3151 81.7911 42.1204 81.8352 42.3143C82.0859 43.4255 82.3245 44.528 82.383 45.6944C82.3889 45.8135 82.2132 45.7759 82.2806 46.1167C82.2938 46.1773 82.3721 46.6897 82.4197 46.8181C82.4269 46.8356 82.4979 46.7346 82.5151 46.8998C82.6134 47.8721 82.6283 48.8908 82.5173 49.896C82.499 50.0544 82.4253 49.8799 82.4114 49.9921C82.3166 50.7631 82.245 51.6798 81.9678 52.4071C81.7758 52.9012 81.6864 52.6711 81.4674 52.8843C81.4373 52.9147 81.3301 53.2063 81.2448 53.1904C81.0335 53.1522 80.8663 52.938 80.6348 52.9143C80.5866 52.9099 80.4969 53.2768 80.4698 53.0279C80.4691 53.0112 80.5276 52.7442 80.5105 52.6677C80.4995 52.615 80.3919 52.6656 80.3887 52.5659C80.3849 52.4666 80.4852 52.3903 80.4899 52.2271C80.4924 52.0635 80.3828 52.1063 80.4485 51.7984ZM121.022 11.1779C121.037 11.4663 121.335 11.418 121.165 11.1457C121.157 11.1331 121.021 11.1632 121.022 11.1779ZM91.4767 0.405177C91.8284 0.533412 92.0643 0.338702 91.8179 0.238219C91.5705 0.138145 91.369 0.36642 91.4767 0.405177ZM87.7826 0.612743C88.1869 0.697585 88.2308 0.271087 87.8058 0.376964C87.7811 0.38301 87.7588 0.607852 87.7826 0.612743ZM81.7451 51.6729C81.7409 51.6761 81.6913 51.8902 81.6935 51.8959C81.7614 52.0321 81.8619 51.6003 81.7451 51.6729ZM84.1646 0.955135C84.3016 1.0013 84.6744 0.905532 84.5056 0.84727C84.3698 0.800224 83.9942 0.897491 84.1646 0.955135ZM113.765 21.8437C113.76 21.8411 113.611 21.8902 113.622 21.9128C113.659 21.9859 113.857 21.89 113.765 21.8437ZM78.0024 1.62039C78.9399 1.51447 79.5378 1.79552 78.5266 1.88209C78.3427 1.89822 78.9067 1.72131 78.67 1.71942C78.2363 1.71638 77.9802 1.97162 77.5242 1.91402C77.4416 1.90321 77.9491 1.6254 78.004 1.61969C78.0035 1.61992 78.0029 1.62016 78.0024 1.62039ZM120.735 11.445C120.734 11.4516 120.798 11.6639 120.802 11.6678C120.93 11.7561 120.8 11.3226 120.735 11.445ZM104.737 23.0604C104.721 23.0528 104.241 23.04 104.223 23.0467C103.967 23.1993 104.948 23.2262 104.737 23.0604ZM109.439 3.14165C109.182 3.16074 108.902 3.08813 108.747 2.91805C108.98 2.99276 109.212 3.06418 109.439 3.14165Z" fill="black"/>
</g>
<defs>
<radialGradient id="paint0_radial_26_254" cx="0" cy="0" r="1" gradientUnits="userSpaceOnUse" gradientTransform="translate(61.9294 242.652) scale(12.4633 33.8554)">
<stop stop-color="#FEF5F5"/>
<stop offset="1" stop-color="#EEC0C0"/>
</radialGradient>
<radialGradient id="paint1_radial_26_254" cx="0" cy="0" r="1" gradientUnits="userSpaceOnUse" gradientTransform="translate(113.144 239.296) scale(11.4496 35.5)">
<stop stop-color="#FEF5F5"/>
<stop offset="1" stop-color="#EEC0C0"/>
</radialGradient>
<radialGradient id="paint2_radial_26_254" cx="0" cy="0" r="1" gradientUnits="userSpaceOnUse" gradientTransform="translate(134.633 196.502) rotate(90) scale(35.5 10.4492)">
<stop stop-color="#FCEDED"/>
<stop offset="1" stop-color="#EEC0C1"/>
</radialGradient>
<radialGradient id="paint3_radial_26_254" cx="0" cy="0" r="1" gradientUnits="userSpaceOnUse" gradientTransform="translate(31.561 200.571) rotate(90) scale(35.5 10.4492)">
<stop stop-color="#FCEDED"/>
<stop offset="1" stop-color="#EEC0C1"/>
</radialGradient>
<radialGradient id="paint4_radial_26_254" cx="0" cy="0" r="1" gradientUnits="userSpaceOnUse" gradientTransform="translate(83 162.296) rotate(90) scale(72.5662 68.8764)">
<stop stop-color="#FCEAEB"/>
<stop offset="1" stop-color="#EEC0C0"/>
</radialGradient>
<radialGradient id="paint5_radial_26_254" cx="0" cy="0" r="1" gradientUnits="userSpaceOnUse" gradientTransform="translate(77 77.8621) rotate(87.9834) scale(71.044 73.932)">
<stop stop-color="#FFF6F6"/>
<stop offset="1" stop-color="#EEC0C0"/>
</radialGradient>
<radialGradient id="paint6_radial_26_254" cx="0" cy="0" r="1" gradientUnits="userSpaceOnUse" gradientTransform="translate(60.5 142.296) rotate(-12.6193) scale(34.3293 46.0515)">
<stop stop-color="#FFF2F2"/>
<stop offset="1" stop-color="#F2B6B9"/>
</radialGradient>
</defs>
</svg>
