<svg width="179" height="272" viewBox="0 0 179 272" fill="none" xmlns="http://www.w3.org/2000/svg">
<g id="pig2">
<g id="plegl2">
<ellipse id="Ellipse 44" cx="61.9294" cy="224.091" rx="12.4633" ry="33.8554" fill="url(#paint0_radial_25_144)"/>
<path id="Ellipse 45" d="M74.6477 260.56C74.706 258.037 73.4453 255.638 71.143 253.893C68.8407 252.147 65.6853 251.197 62.371 251.252C59.0567 251.307 55.8549 252.362 53.4701 254.185C51.0853 256.008 49.7128 258.45 49.6544 260.974L62.1511 260.767L74.6477 260.56Z" fill="#584C4C"/>
</g>
<g id="plegr2">
<ellipse id="Ellipse 42" cx="113.144" cy="220.735" rx="11.4496" ry="35.5" fill="url(#paint1_radial_25_144)"/>
<path id="Ellipse 46" d="M123.48 259.977C123.534 257.33 122.376 254.816 120.261 252.985C118.145 251.155 115.247 250.159 112.202 250.216C109.157 250.274 106.216 251.38 104.025 253.292C101.834 255.203 100.573 257.764 100.52 260.41L112 260.193L123.48 259.977Z" fill="#584C4C"/>
</g>
<g id="parmr2">
<ellipse id="Ellipse 44_2" cx="134.633" cy="177.941" rx="10.4492" ry="35.5" transform="rotate(-5.69855 134.633 177.941)" fill="url(#paint2_radial_25_144)"/>
<path id="Ellipse 46_2" d="M152.793 219.677C152.411 217.776 151.663 215.868 150.608 214.1C149.552 212.333 148.216 210.753 146.704 209.483C145.192 208.214 143.544 207.288 141.887 206.778C140.23 206.268 138.609 206.188 137.149 206.542C135.689 206.897 134.429 207.678 133.466 208.824C132.503 209.971 131.864 211.452 131.598 213.154C131.331 214.855 131.444 216.732 131.929 218.638C132.413 220.544 133.256 222.43 134.391 224.148L142.27 218.759L152.793 219.677Z" fill="#584C4C"/>
</g>
<g id="parml2">
<ellipse id="Ellipse 44_3" cx="31.561" cy="182.01" rx="10.4492" ry="35.5" transform="rotate(-0.940515 31.561 182.01)" fill="url(#paint3_radial_25_144)"/>
<path id="Ellipse 45_2" d="M40.5398 216.088C40.1707 214.062 39.4756 212.123 38.5081 210.421C37.5407 208.72 36.3268 207.301 34.9603 206.275C33.5938 205.249 32.1113 204.642 30.6274 204.503C29.1435 204.364 27.6979 204.695 26.4024 205.472C25.107 206.248 23.9963 207.448 23.1562 208.98C22.3161 210.512 21.7692 212.335 21.5577 214.306C21.3462 216.278 21.4758 218.347 21.9364 220.352C22.397 222.357 23.1764 224.246 24.2142 225.871L31.1512 217.798L40.5398 216.088Z" fill="#584C4C"/>
</g>
<ellipse id="pbody2" cx="83" cy="157.302" rx="56" ry="59" fill="url(#paint4_radial_25_144)"/>
<g id="phead2">
<g id="earl2">
<path id="Ellipse 51" d="M30.4378 55.0887C27.8852 51.2664 25.7581 47.214 24.1779 43.163C22.5978 39.1119 21.5955 35.1416 21.2283 31.4786C20.8611 27.8156 21.1363 24.5317 22.038 21.8144C22.9397 19.0971 24.4504 16.9997 26.4837 15.6418C28.5171 14.2839 31.0333 13.6921 33.8887 13.9004C36.7441 14.1086 39.8828 15.1127 43.1256 16.8553C46.3684 18.5979 49.6517 21.045 52.7881 24.0567C55.9246 27.0685 58.8527 30.586 61.4053 34.4083L45.9216 44.7485L30.4378 55.0887Z" fill="#FFE3E3"/>
<ellipse id="Ellipse 53" cx="23.8997" cy="33.909" rx="12.7664" ry="23.5267" transform="rotate(34.7506 23.8997 33.909)" fill="#FFF1F1"/>
</g>
<g id="earr2">
<path id="Ellipse 54" d="M105.676 42.8885C108.172 39.0295 111.049 35.4698 114.141 32.4127C117.233 29.3557 120.481 26.8611 123.698 25.0715C126.915 23.2819 130.039 22.2322 132.891 21.9825C135.743 21.7328 138.267 22.2878 140.32 23.616C142.373 24.9442 143.914 27.0195 144.855 29.7233C145.797 32.4272 146.119 35.7067 145.806 39.3747C145.492 43.0426 144.547 47.0271 143.026 51.1007C141.505 55.1743 139.437 59.2572 136.941 63.1163L121.308 53.0024L105.676 42.8885Z" fill="#FFE3E3"/>
<ellipse id="Ellipse 55" cx="142.399" cy="39.7491" rx="12.7664" ry="23.4889" transform="rotate(-52.3937 142.399 39.7491)" fill="#FFF1F1"/>
</g>
<ellipse id="Ellipse 37" cx="82" cy="87.8016" rx="64" ry="61.5" fill="url(#paint5_radial_25_144)"/>
<ellipse id="Ellipse 39" cx="66.5" cy="118.802" rx="27.5" ry="20.5" fill="url(#paint6_radial_25_144)"/>
<ellipse id="Ellipse 40" cx="71.0966" cy="126.564" rx="5" ry="4.5" transform="rotate(-1.42544 71.0966 126.564)" fill="#B38282"/>
<ellipse id="Ellipse 41" cx="51.9034" cy="119.039" rx="5" ry="4.5" transform="rotate(-1.42544 51.9034 119.039)" fill="#B38282"/>
<ellipse id="Ellipse 46_3" cx="107.5" cy="91.3016" rx="8.5" ry="14" fill="white"/>
<ellipse id="Ellipse 47" cx="49.5" cy="76.3016" rx="8.5" ry="14" fill="white"/>
</g>
<path id="hair2" d="M80.332 33.762C80.4514 33.3899 80.6624 32.922 80.8366 32.5681C80.8908 32.4579 80.9186 32.5345 80.9582 32.4594C81.0353 32.3124 81.064 32.1605 81.1426 32.0182C81.169 31.9707 81.2245 32.0631 81.2508 32.0115C81.3946 31.7277 81.4746 31.4424 81.5953 31.1535C82.1941 29.7177 82.6827 28.2701 83.1131 26.762C83.2547 26.2667 83.4754 25.6731 83.5563 25.1406C83.5657 25.0785 83.4858 25.0995 83.4824 25.0865C83.4305 24.8851 83.563 24.9768 83.6074 24.862C83.7819 24.4118 83.8904 23.8753 83.9382 23.4189C83.9589 23.2208 83.7819 23.3932 83.8954 23.2097C83.9031 23.1969 83.9722 23.2592 83.9892 23.2068C84.0278 23.0879 84.0498 22.8552 84.0697 22.7624C84.1088 22.5831 84.1122 22.5537 84.137 22.3823C84.1717 22.1461 84.246 21.8704 84.2573 21.6163C84.2594 21.5621 84.1716 21.6241 84.1678 21.537C84.164 21.4508 84.1952 21.2226 84.2215 21.1477C84.2481 21.0726 84.3075 21.1116 84.3233 21.0994C84.4562 20.9985 84.3119 20.7183 84.3104 20.6845C84.2923 20.0601 84.4188 19.5359 84.4375 18.9504C84.4514 18.5076 84.424 18.0331 84.4236 17.612C84.4234 17.1107 84.4524 16.6818 84.4186 16.1952C84.415 16.1438 84.3242 16.2092 84.3196 16.1466C84.271 15.4804 84.2236 14.8196 84.2105 14.1523C84.2092 14.0852 84.3015 14.1612 84.3051 14.0935C84.3265 13.6778 84.3978 13.0096 84.0032 12.8221C83.975 12.5427 83.9355 12.2142 83.9639 11.9554C83.9821 11.789 84.0983 11.9272 84.0256 11.7389C84.0092 11.6964 83.9418 11.7676 83.9231 11.7029C83.8444 11.4304 83.8127 11.1293 83.7174 10.8636C83.6979 10.8098 83.6316 10.839 83.6159 10.8259C83.4881 10.7144 83.6092 10.4608 83.6113 10.4113C83.6251 10.0318 83.5293 9.77121 83.4528 9.43283C83.4352 9.35516 83.3641 9.46846 83.3438 9.39458C83.2403 9.013 83.1462 8.59871 83.0902 8.21353C83.0777 8.12704 83.1762 8.18408 83.1742 8.14165C83.1643 7.95444 83.0059 7.95385 82.9924 7.77436C82.9894 7.73651 83.0618 7.73897 83.0674 7.73041C83.1553 7.5962 82.9673 7.55003 82.9565 7.52447C82.8158 7.20118 82.9285 6.94725 82.8119 6.62938C82.7978 6.59157 82.7384 6.70289 82.7038 6.59518C82.4739 5.88052 82.2655 5.11401 82.1074 4.38709C82.0824 4.27317 82.1703 4.33209 82.1759 4.32268C82.2605 4.17035 82.0747 4.14833 82.057 4.11411C81.9207 3.84131 81.9721 3.54027 81.7157 3.41051C81.4315 2.36001 81.012 1.38352 80.7308 0.332362L81.2765 0.162269C81.3096 0.346946 81.3339 0.531714 81.348 0.716205C81.3494 0.73249 81.2614 0.722262 81.2646 0.754523C81.2988 1.14221 81.4096 1.04171 81.6127 1.26726C81.6636 1.32372 81.5057 1.55268 81.494 1.57178C81.4522 1.64297 81.319 1.59595 81.3123 1.61861C81.2594 1.80287 81.6645 1.71679 81.6947 1.9571C81.6949 1.96463 81.6158 1.94246 81.6107 1.96334C81.5947 2.02803 81.6316 2.08595 81.6121 2.1492C81.5663 2.29432 81.372 2.35963 81.5044 2.55748C81.5212 2.58351 81.7524 2.52203 81.755 2.73939C81.757 2.82607 81.7755 3.20608 81.7603 3.31194C81.7465 3.41785 81.6702 3.34601 81.6671 3.35367C81.5691 3.63616 81.5268 3.52908 81.3782 3.6661C81.229 3.80073 81.5799 3.76973 81.6177 3.82802C81.6556 3.88671 81.5652 4.0925 81.5336 4.14102C81.5024 4.19009 81.4579 4.12461 81.4394 4.1685C81.3161 4.45745 81.605 4.30973 81.6539 4.41239C81.7679 4.65737 81.4908 4.81527 81.4403 5.01913C81.4265 5.07531 81.491 5.03603 81.4901 5.08774C81.4847 5.29307 81.387 5.40113 81.4218 5.64069C81.4278 5.67925 81.5482 5.89331 81.4115 5.99029C81.3919 6.00377 81.338 5.94369 81.3067 6.02512C81.2602 6.14632 81.1958 6.36978 81.1835 6.50912C81.1745 6.61228 81.3066 6.52394 81.2429 6.64147C81.2144 6.69343 81.1801 6.57524 81.1316 6.67364C81.0837 6.77152 81.0135 7.03417 80.9854 7.1338C80.9578 7.23337 81.0515 7.20266 81.0544 7.2122C81.0701 7.26973 81.047 7.47308 81.041 7.48994C80.7721 8.34791 80.3182 9.04817 79.9519 9.82907C79.9228 9.89048 80.0194 9.89117 80.0157 9.90096C79.9354 10.1233 79.8243 9.85341 79.68 9.95754C79.8426 10.0213 79.7694 10.0899 79.7041 10.2411C79.6727 10.314 79.7522 10.3106 79.7545 10.3202C79.7833 10.4735 79.6274 10.4773 79.5938 10.4811C79.4693 10.4962 79.5254 10.6286 79.4413 10.6388C79.3579 10.6486 79.3384 10.4956 79.2576 10.6277C79.2869 10.6977 79.4861 10.6851 79.4449 10.8002C79.2919 11.2397 78.6967 11.8562 78.4616 12.1286C78.2285 12.4048 78.1622 12.5004 78.0103 12.6469C77.7337 12.9088 77.915 12.8814 77.7995 13.0959C77.6816 13.3101 77.5392 13.0252 77.4693 13.0079C77.4001 12.9897 77.4243 13.0603 77.3707 13.067C77.3174 13.0734 77.3452 12.9793 77.2708 13.0408C77.1971 13.1022 77.0993 13.3698 77.1228 13.4406C77.1737 13.5905 77.3641 13.6077 77.146 13.7563C77.1334 13.7647 77.1117 13.6759 77.0663 13.7108C76.7078 13.9889 76.3657 14.3056 75.9945 14.5604C75.9434 14.5953 75.9277 14.494 75.8974 14.5134C75.5811 14.7137 75.7767 14.7371 75.7235 14.9938C75.6203 14.7985 75.4504 14.7707 75.2322 14.9448C75.1003 15.0492 75.1815 15.1047 75.1363 15.2247C75.1227 15.2609 74.9884 15.2831 74.9981 15.3313C75.029 15.4897 75.2187 15.5504 74.9446 15.676C74.9325 15.6813 74.9179 15.5932 74.8793 15.616C74.6298 15.7618 74.6912 15.9046 74.4458 16.0997C74.2533 16.2528 73.8397 16.4172 73.5961 16.5513C73.4716 16.3435 73.282 16.527 73.277 16.7247C73.1196 16.8118 72.9572 16.9176 72.7935 16.9837C72.7374 17.0064 72.7372 16.9258 72.7269 16.9229C72.5682 16.8758 72.5794 17.0553 72.5482 17.0797C72.2079 17.3365 71.8491 17.3808 71.5373 17.6621C71.5264 17.672 71.5768 17.8348 71.427 17.7688C71.4172 17.7639 71.5051 17.6388 71.3314 17.7126C71.1571 17.7868 70.7984 17.8459 70.5841 18.0169C70.5328 18.0583 70.4331 18.2458 70.2739 18.1925C70.2527 18.1851 70.2528 18.1333 70.2201 18.1171C70.1154 18.0655 70.1347 18.2403 69.9967 18.1372C69.8592 18.0338 69.6431 17.9981 69.4277 18.1756C69.4209 18.181 69.4047 18.3288 69.3254 18.3524C69.1988 18.3901 69.0126 18.4186 68.8821 18.458C68.8195 18.477 68.8833 18.5455 68.8728 18.5502C68.4569 18.72 68.1291 18.7274 67.6612 18.795C67.5748 18.8076 67.3488 18.9696 67.1665 18.9096C66.968 18.843 67.0828 18.4093 66.6931 18.569C66.5383 18.6314 66.382 19.1801 66.0475 18.9411C65.4646 19.0643 64.9099 18.9446 64.3136 19.0153C64.2868 19.0184 64.1944 19.1599 64.1305 19.1541C64.0361 19.1452 63.9893 19.0735 63.9231 19.0639C63.6484 19.0219 63.3814 19.0496 63.114 18.9991C63.0126 18.9797 63.0593 18.9162 62.9399 18.8918C62.8207 18.8668 62.7252 18.9436 62.5692 18.8649C62.4521 18.8049 62.3739 18.5926 62.2233 18.5308C62.1706 18.71 62.0614 18.6792 61.8538 18.6692C61.8138 18.6672 61.8352 18.7415 61.8152 18.7438C61.7333 18.7543 61.6819 18.6817 61.6019 18.694C61.5825 18.6969 61.5618 18.7573 61.5446 18.763C61.3964 18.8138 61.252 18.6085 61.2297 18.573C61.1399 18.4375 61.053 18.492 60.9735 18.4187C60.8953 18.3455 61.0512 18.3602 60.9527 18.2942C60.7491 18.1577 60.4673 18.0335 60.2545 17.9134C60.1696 17.8659 60.1866 17.9724 60.1735 17.9673C59.9831 17.8873 59.8584 17.7041 59.6715 17.7856C59.7923 17.3401 59.5437 17.757 59.3512 17.5135C59.3362 17.494 59.4351 17.3097 59.5227 17.3348C59.6099 17.3597 59.6811 17.4872 59.8072 17.512C59.8375 17.5189 60.0753 17.4384 60.0989 17.4385C60.288 17.4452 60.1542 17.7242 60.154 17.744C60.1538 17.9566 60.4316 17.8677 60.4828 17.8771C60.7227 17.9258 60.8868 18.0484 61.0867 18.0809C61.2173 18.102 61.3038 17.9174 61.3927 17.9586C61.6867 18.0913 61.7205 18.4002 62.0882 18.2515C62.167 18.2188 62.1606 17.9886 62.3438 18.217C62.3543 18.2314 62.4903 18.4295 62.6139 18.3528C62.6292 18.3431 62.6427 18.2798 62.6603 18.2781C62.7786 18.2676 62.8417 18.3328 62.9666 18.3307C63.0915 18.3284 63.2419 18.3155 63.3779 18.3563C63.4596 18.3809 63.554 18.5138 63.5923 18.5477C63.7011 18.6458 63.8361 18.5183 63.8991 18.6268C63.964 18.7357 63.8059 18.8812 63.9966 18.9628C64.0159 18.7956 64.0444 18.6247 64.0671 18.4567C64.4789 18.4908 64.8871 18.5495 65.3066 18.5249C65.3586 18.5216 65.3016 18.4336 65.357 18.4276C65.5916 18.4023 65.7971 18.4518 66.0367 18.4022C66.2218 18.3634 66.4159 18.2432 66.6061 18.191C66.751 18.3649 67.0303 18.2538 67.2428 18.2302C67.3174 18.222 67.3224 18.2733 67.3783 18.2793C67.5895 18.2996 67.4618 18.1519 67.5104 18.1145C67.7155 17.9533 67.8176 18.3253 68.0905 18.2487C68.1055 18.2449 68.2306 18.0011 68.2508 17.9822C68.3821 17.861 68.2945 18.0446 68.3946 18.0332C68.5779 18.0117 68.7137 18.0237 68.899 17.9041C68.9534 17.8689 69.0553 17.7028 69.2003 17.759C69.2194 17.7663 69.2323 17.8334 69.2458 17.8332C69.4878 17.8221 69.4246 17.6175 69.5245 17.5059C69.6239 17.3943 69.8621 17.4621 69.9166 17.4865C70.0571 17.5503 69.8555 17.5599 69.8539 17.5718C69.8339 17.7159 69.966 17.6434 70.0767 17.6119C70.1675 17.8009 70.3142 17.7296 70.1912 17.5782C70.1776 17.5618 70.1016 17.6125 70.0767 17.6119C70.0968 17.3843 70.246 17.2973 70.4997 17.3987C70.6184 17.4458 70.5811 17.5766 70.8215 17.4308C70.93 17.3643 70.8274 17.2524 70.9119 17.1717C71.1039 16.9878 71.4575 16.9679 71.6825 16.8301C71.763 16.7807 71.6456 16.7519 71.6992 16.7158C71.8408 16.6195 72.0015 16.6016 72.1382 16.493C72.1505 16.4831 72.0779 16.4288 72.124 16.4024C72.4734 16.2003 72.8023 16.0691 73.1608 15.8458C73.3345 15.7382 73.614 15.5 73.7917 15.3879C74.1006 15.1951 74.5362 15.0225 74.7655 14.806C74.915 14.6652 74.8283 14.628 74.8613 14.53C74.9238 14.3414 75.2754 14.302 75.3262 14.2981C75.3279 14.2982 75.2056 14.4261 75.3047 14.3982C75.4034 14.4305 75.3249 14.2996 75.3262 14.2981C75.3593 14.2966 75.6375 14.0812 75.6786 14.0224C75.7012 13.9908 75.6335 13.9465 75.6461 13.9312C75.9483 13.5681 76.2687 13.2325 76.6215 12.9176C76.6284 12.9127 76.6828 12.9823 76.6982 12.9699C76.9161 12.7981 76.9567 12.595 77.0582 12.3853C77.1596 12.1752 77.2888 12.0552 77.4895 12.0484C77.5838 11.906 77.788 11.7569 77.9064 11.6695C78.0249 11.5822 77.9011 11.4632 77.9059 11.4515C78.0509 11.0805 78.2568 10.9599 78.4917 10.6362C78.6038 10.483 78.7828 10.1527 78.8698 9.96746C78.9391 9.82106 79.022 9.75649 79.0722 9.61428C79.079 9.59508 79.003 9.576 79.0034 9.56923C79.0036 9.38154 79.1275 9.53973 79.1731 9.52559C79.3378 9.4739 79.4324 9.43436 79.4796 9.21769C79.4908 9.16727 79.3161 8.92072 79.34 8.83515C79.3718 8.72323 79.4395 8.80341 79.4698 8.68437C79.4724 8.67421 79.4183 8.6513 79.4516 8.58517C79.6053 8.2779 79.7805 7.94412 79.8971 7.60614C79.9131 7.56015 79.8041 7.58684 79.8256 7.52021C79.9265 7.20752 80.037 6.86736 80.1624 6.57052C80.1935 6.49741 80.2439 6.56193 80.2671 6.55041C80.4084 6.47786 80.279 6.28947 80.2813 6.26543C80.3367 5.67912 80.566 5.26246 80.5555 4.659C80.5551 4.62521 80.3947 4.36462 80.558 4.26505C80.569 4.25869 80.7367 4.15704 80.6316 4.05292C80.625 4.04661 80.5392 4.1112 80.5531 3.9918C80.567 3.87078 80.5169 3.68077 80.6079 3.51751C80.6366 3.46644 80.7969 3.33973 80.665 3.18544C80.6563 3.17379 80.3591 2.94742 80.5527 2.85175C80.5844 2.83655 80.7969 2.83701 80.6762 2.65735C80.6527 2.62368 80.6105 2.69074 80.5743 2.60062C80.5184 2.46337 80.5567 2.26936 80.4422 2.10592C80.422 2.07698 80.2641 1.96792 80.3566 1.84952C80.3711 1.83082 80.4454 1.85182 80.4451 1.79551C80.443 1.5222 80.3494 1.27088 80.34 0.996936C80.3364 0.90026 80.4582 0.923491 80.4658 0.818484C80.4735 0.713603 80.4528 0.506442 80.3748 0.416007C80.3709 0.411418 80.3667 0.407474 80.3624 0.404105L81.6204 0.012042C81.7069 0.0717878 81.8267 -0.0804568 81.8938 0.0656652C82.2003 0.732894 82.3363 1.44175 82.555 2.1322C82.5871 2.23384 82.6202 2.12939 82.6718 2.27747C82.8664 2.83325 83.2366 3.76881 83.2579 4.29926C83.2738 4.71864 83.0411 4.25826 83.0906 4.5662C83.1145 4.71463 83.3628 4.80365 83.3803 4.8378C83.5502 5.16033 83.5318 5.42326 83.649 5.71837C83.6732 5.7793 83.7371 5.69367 83.7567 5.74583C83.824 5.92144 83.845 6.13089 83.902 6.30505C83.9279 6.38344 83.9865 6.35095 84.0024 6.42526C84.041 6.60275 84.0575 6.7638 84.0449 6.94847C84.0437 6.96526 83.9369 6.88351 83.9691 7.01191C84.022 7.22153 84.0345 7.50035 84.1576 7.72441C84.1944 7.79094 84.3398 7.75639 84.2796 7.93542C84.267 7.97291 84.0831 7.97664 84.2785 8.11597C84.3107 8.13734 84.5909 8.39418 84.4963 8.57509C84.4716 8.62296 84.3535 8.75772 84.3967 8.83854C84.4031 8.84939 84.4697 8.78366 84.4945 8.85346C84.5804 9.09891 84.6339 9.36665 84.7173 9.6243C84.7396 9.69285 84.7973 9.57038 84.828 9.67322C84.9126 9.9565 84.9673 10.3155 84.9992 10.6062C85.0107 10.7124 84.9288 10.6538 84.923 10.6629C84.8281 10.8084 85.0031 10.8481 85.0205 10.8868C85.1258 11.1275 85.0852 11.33 85.1475 11.5616C85.1644 11.6251 85.2333 11.5656 85.2425 11.5772C85.3333 11.6987 85.1773 11.6239 85.1769 11.7108C85.1751 11.9544 85.2247 12.2134 85.272 12.4504C85.2895 12.5381 85.3637 12.4248 85.3784 12.5038C85.4669 12.971 85.5245 13.4562 85.529 13.9227C85.5296 14.0102 85.4538 13.964 85.44 13.9838C85.3435 14.12 85.5147 14.2837 85.5335 14.3241C85.6194 14.5061 85.5654 14.5884 85.593 14.7554C85.73 15.5712 85.7459 16.5986 85.732 17.379C85.715 18.3972 85.6268 19.1848 85.5816 20.1498C85.5784 20.2114 85.6754 20.1556 85.6739 20.2089C85.6491 20.8961 85.5459 21.5657 85.4847 22.2494C85.4795 22.3058 85.5775 22.2361 85.5719 22.3272C85.5609 22.5148 85.5236 22.7473 85.4682 22.9282C85.4413 23.0166 85.3845 22.8843 85.359 22.9734C85.2992 23.1806 85.2569 23.4066 85.2339 23.6276C85.2245 23.7203 85.3369 23.5971 85.3177 23.7164C85.1875 24.5321 85.038 25.3406 84.7342 26.1244C84.7133 26.1782 84.5236 26.1845 84.5295 26.3105C84.5768 26.3313 84.6351 26.3448 84.687 26.3614C84.4346 27.536 84.0466 28.6693 83.6765 29.8024C83.6607 29.8507 83.7799 29.7964 83.7498 29.8902C83.5735 30.4379 83.4284 30.9565 83.1443 31.4782C83.1167 31.5286 82.9652 31.4447 82.9342 31.6109C82.929 31.6401 82.866 31.8861 82.8785 31.9606C82.8808 31.971 82.9715 31.9541 82.946 32.0321C82.7947 32.4902 82.6068 32.9452 82.3916 33.3739C82.3567 33.443 82.3065 33.3362 82.281 33.3851C82.0984 33.7379 82.0099 34.1423 81.8011 34.4592C81.6612 34.6704 81.5588 34.5308 81.3757 34.5995C81.3499 34.6092 81.2894 34.751 81.2084 34.727C81.0047 34.6669 80.8179 34.5114 80.5975 34.4556C80.5502 34.4433 80.5217 34.6534 80.4585 34.4967C80.4545 34.4858 80.4739 34.3335 80.4505 34.285C80.4344 34.2512 80.338 34.2617 80.3246 34.2007C80.3112 34.1397 80.3988 34.1137 80.3919 34.0192C80.3844 33.9247 80.2804 33.9233 80.332 33.762ZM78.4323 11.2649C78.5756 11.2045 78.3421 11.0166 78.3187 11.173C78.3179 11.1808 78.4251 11.2681 78.4323 11.2649ZM64.8875 18.7679C65.061 18.8986 65.1746 18.7007 65.052 18.6018C64.9316 18.5024 64.8358 18.728 64.8875 18.7679ZM63.1002 18.7311C63.2854 18.8651 63.3747 18.4493 63.1542 18.5024C63.1415 18.5053 63.0896 18.7233 63.1002 18.7311ZM81.5615 34.0198C81.5572 34.02 81.5136 34.12 81.5163 34.1239C81.5834 34.2129 81.6705 34.0126 81.5615 34.0198ZM61.3501 18.3849C61.3901 18.4614 61.5858 18.459 61.5344 18.3657C61.4938 18.2914 61.3014 18.2908 61.3501 18.3849ZM81.2947 5.00697C81.2995 5.00539 81.3127 4.92884 81.2874 4.92747C81.2063 4.9233 81.2161 5.03251 81.2947 5.00697ZM58.7571 16.8287C59.0785 17.1373 59.09 17.5853 58.72 17.2313C58.6547 17.1668 58.943 17.2731 58.8742 17.174C58.7516 16.9956 58.4976 17.0633 58.4193 16.8246C58.4065 16.7832 58.7398 16.8123 58.758 16.8289C58.7577 16.8288 58.7574 16.8287 58.7571 16.8287ZM78.7695 11.4107C78.7744 11.4108 78.8397 11.3246 78.8379 11.32C78.7936 11.218 78.6627 11.391 78.7695 11.4107ZM81.2013 0.446635C81.2074 0.439879 81.1674 0.252154 81.1488 0.196067L80.8551 0.287593C80.8588 0.296203 80.8615 0.30149 80.8629 0.302215C80.9182 0.323184 80.9442 0.297118 80.9504 0.253295L81.0509 0.221961C81.0271 0.328494 81.1078 0.552104 81.2013 0.446635ZM73.589 16.5482C73.5386 16.6928 73.421 16.7781 73.2776 16.7245C73.3824 16.6687 73.4846 16.6068 73.589 16.5482Z" fill="black"/>
</g>
<defs>
<radialGradient id="paint0_radial_25_144" cx="0" cy="0" r="1" gradientUnits="userSpaceOnUse" gradientTransform="translate(61.9294 224.091) scale(12.4633 33.8554)">
<stop stop-color="#FEF5F5"/>
<stop offset="1" stop-color="#EEC0C0"/>
</radialGradient>
<radialGradient id="paint1_radial_25_144" cx="0" cy="0" r="1" gradientUnits="userSpaceOnUse" gradientTransform="translate(113.144 220.735) scale(11.4496 35.5)">
<stop stop-color="#FEF5F5"/>
<stop offset="1" stop-color="#EEC0C0"/>
</radialGradient>
<radialGradient id="paint2_radial_25_144" cx="0" cy="0" r="1" gradientUnits="userSpaceOnUse" gradientTransform="translate(134.633 177.941) rotate(90) scale(35.5 10.4492)">
<stop stop-color="#FCEDED"/>
<stop offset="1" stop-color="#EEC0C1"/>
</radialGradient>
<radialGradient id="paint3_radial_25_144" cx="0" cy="0" r="1" gradientUnits="userSpaceOnUse" gradientTransform="translate(31.561 182.01) rotate(90) scale(35.5 10.4492)">
<stop stop-color="#FCEDED"/>
<stop offset="1" stop-color="#EEC0C1"/>
</radialGradient>
<radialGradient id="paint4_radial_25_144" cx="0" cy="0" r="1" gradientUnits="userSpaceOnUse" gradientTransform="translate(83 143.735) rotate(90) scale(72.5662 68.8764)">
<stop stop-color="#FCEAEB"/>
<stop offset="1" stop-color="#EEC0C0"/>
</radialGradient>
<radialGradient id="paint5_radial_25_144" cx="0" cy="0" r="1" gradientUnits="userSpaceOnUse" gradientTransform="translate(77 59.3016) rotate(87.9834) scale(71.044 73.932)">
<stop stop-color="#FFF6F6"/>
<stop offset="1" stop-color="#EEC0C0"/>
</radialGradient>
<radialGradient id="paint6_radial_25_144" cx="0" cy="0" r="1" gradientUnits="userSpaceOnUse" gradientTransform="translate(60.5 123.735) rotate(-12.6193) scale(34.3293 46.0515)">
<stop stop-color="#FFF2F2"/>
<stop offset="1" stop-color="#F2B6B9"/>
</radialGradient>
</defs>
</svg>
