<svg width="179" height="278" viewBox="0 0 179 278" fill="none" xmlns="http://www.w3.org/2000/svg">
<g id="pig3">
<g id="plegl">
<ellipse id="Ellipse 44" cx="61.9294" cy="230.781" rx="12.4633" ry="33.8554" fill="url(#paint0_radial_26_224)"/>
<path id="Ellipse 45" d="M74.6477 267.251C74.706 264.727 73.4453 262.329 71.143 260.583C68.8407 258.838 65.6853 257.888 62.371 257.943C59.0567 257.998 55.8549 259.053 53.4701 260.876C51.0853 262.699 49.7128 265.141 49.6544 267.664L62.1511 267.458L74.6477 267.251Z" fill="#584C4C"/>
</g>
<g id="plegr3">
<ellipse id="Ellipse 42" cx="113.144" cy="227.426" rx="11.4496" ry="35.5" fill="url(#paint1_radial_26_224)"/>
<path id="Ellipse 46" d="M123.48 266.667C123.534 264.021 122.376 261.506 120.261 259.676C118.145 257.845 115.247 256.849 112.202 256.907C109.157 256.964 106.216 258.071 104.025 259.982C101.834 261.894 100.573 264.455 100.52 267.101L112 266.884L123.48 266.667Z" fill="#584C4C"/>
</g>
<g id="parmr3">
<ellipse id="Ellipse 44_2" cx="134.633" cy="184.632" rx="10.4492" ry="35.5" transform="rotate(-5.69855 134.633 184.632)" fill="url(#paint2_radial_26_224)"/>
<path id="Ellipse 46_2" d="M152.793 226.368C152.411 224.466 151.663 222.558 150.608 220.791C149.552 219.023 148.216 217.444 146.704 216.174C145.192 214.904 143.544 213.979 141.887 213.469C140.23 212.959 138.609 212.878 137.149 213.233C135.689 213.588 134.429 214.369 133.466 215.515C132.503 216.661 131.864 218.143 131.598 219.844C131.331 221.546 131.444 223.422 131.929 225.329C132.413 227.235 133.256 229.12 134.391 230.838L142.27 225.45L152.793 226.368Z" fill="#584C4C"/>
</g>
<g id="parml3">
<ellipse id="Ellipse 44_3" cx="31.561" cy="188.701" rx="10.4492" ry="35.5" transform="rotate(-0.940515 31.561 188.701)" fill="url(#paint3_radial_26_224)"/>
<path id="Ellipse 45_2" d="M40.5398 222.779C40.1707 220.752 39.4756 218.814 38.5081 217.112C37.5407 215.41 36.3268 213.992 34.9603 212.965C33.5938 211.939 32.1113 211.333 30.6274 211.194C29.1435 211.055 27.6979 211.386 26.4024 212.162C25.107 212.938 23.9963 214.139 23.1562 215.671C22.3161 217.203 21.7692 219.025 21.5577 220.997C21.3462 222.969 21.4758 225.037 21.9364 227.043C22.397 229.048 23.1764 230.937 24.2142 232.562L31.1512 224.489L40.5398 222.779Z" fill="#584C4C"/>
</g>
<ellipse id="pbody3" cx="83" cy="163.992" rx="56" ry="59" fill="url(#paint4_radial_26_224)"/>
<g id="phead3">
<g id="earl3">
<path id="Ellipse 51" d="M30.4378 61.7792C27.8852 57.9568 25.7581 53.9045 24.1779 49.8534C22.5978 45.8024 21.5955 41.832 21.2283 38.169C20.8611 34.506 21.1363 31.2222 22.038 28.5049C22.9397 25.7876 24.4504 23.6901 26.4838 22.3322C28.5171 20.9743 31.0333 20.3826 33.8887 20.5908C36.7441 20.799 39.8828 21.8031 43.1256 23.5458C46.3684 25.2884 49.6517 27.7355 52.7881 30.7472C55.9246 33.7589 58.8527 37.2764 61.4053 41.0988L45.9216 51.439L30.4378 61.7792Z" fill="#FFE3E3"/>
<ellipse id="Ellipse 53" cx="23.8997" cy="40.5995" rx="12.7664" ry="23.5267" transform="rotate(34.7506 23.8997 40.5995)" fill="#FFF1F1"/>
</g>
<g id="earr3">
<path id="Ellipse 54" d="M105.675 49.579C108.172 45.7199 111.049 42.1602 114.141 39.1032C117.233 36.0461 120.481 33.5516 123.698 31.762C126.915 29.9723 130.039 28.9227 132.891 28.673C135.743 28.4232 138.267 28.9783 140.32 30.3065C142.373 31.6346 143.914 33.7099 144.855 36.4138C145.797 39.1177 146.119 42.3972 145.806 46.0651C145.492 49.7331 144.547 53.7176 143.026 57.7912C141.505 61.8648 139.437 65.9477 136.94 69.8068L121.308 59.6929L105.675 49.579Z" fill="#FFE3E3"/>
<ellipse id="Ellipse 55" cx="142.399" cy="46.4395" rx="12.7664" ry="23.4889" transform="rotate(-52.3937 142.399 46.4395)" fill="#FFF1F1"/>
</g>
<ellipse id="Ellipse 37" cx="82" cy="94.492" rx="64" ry="61.5" fill="url(#paint5_radial_26_224)"/>
<ellipse id="Ellipse 39" cx="66.5" cy="125.492" rx="27.5" ry="20.5" fill="url(#paint6_radial_26_224)"/>
<ellipse id="Ellipse 40" cx="71.0966" cy="133.254" rx="5" ry="4.5" transform="rotate(-1.42544 71.0966 133.254)" fill="#B38282"/>
<ellipse id="Ellipse 41" cx="51.9034" cy="125.73" rx="5" ry="4.5" transform="rotate(-1.42544 51.9034 125.73)" fill="#B38282"/>
<ellipse id="Ellipse 46_3" cx="107.5" cy="97.992" rx="8.5" ry="14" fill="white"/>
<ellipse id="Ellipse 47" cx="49.5" cy="82.992" rx="8.5" ry="14" fill="white"/>
</g>
<path id="hair3" d="M80.4036 40.2874C80.5704 39.8121 80.8474 39.2185 81.0756 38.7729C81.147 38.6333 81.1653 38.7268 81.2167 38.6314C81.3173 38.445 81.3692 38.2545 81.4726 38.0723C81.5071 38.012 81.5512 38.1237 81.5856 38.0597C81.7735 37.7093 81.8998 37.3555 82.0721 36.9936C82.9215 35.2097 83.7053 33.4399 84.4687 31.6039C84.7196 31.0009 85.0766 30.2812 85.2777 29.6356C85.3012 29.5599 85.2158 29.5788 85.2152 29.5626C85.2088 29.3093 85.3217 29.434 85.3927 29.2961C85.6735 28.7505 85.9038 28.1079 86.0596 27.5441C86.1255 27.304 85.9087 27.4956 86.0646 27.2829C86.0753 27.268 86.1301 27.3527 86.1593 27.2899C86.2256 27.1473 86.3018 26.8619 86.3434 26.7491C86.4242 26.5316 86.4347 26.4948 86.4991 26.2862C86.5872 26.0023 86.7259 25.6671 86.7951 25.354C86.8097 25.287 86.7081 25.3526 86.7242 25.244C86.7407 25.135 86.8222 24.8611 86.8656 24.7704C86.909 24.6806 86.9593 24.737 86.9777 24.7239C87.1326 24.6165 87.0518 24.2492 87.0577 24.207C87.177 23.4343 87.4149 22.7968 87.5483 22.0737C87.6494 21.5245 87.7088 20.9325 87.7777 20.4082C87.8593 19.7882 87.9503 19.2543 87.9743 18.6456C87.9768 18.5809 87.8789 18.6519 87.8816 18.5732C87.91 17.7391 87.9131 16.9161 87.9146 16.0851C87.9147 16.0015 88.0055 16.1024 88.0105 16.0183C88.0436 15.5061 88.0948 14.6674 87.6845 14.4306C87.6413 14.0888 87.5721 13.6802 87.571 13.3629C87.5698 13.1582 87.7037 13.3252 87.607 13.0955C87.585 13.0438 87.5262 13.133 87.499 13.0544C87.3847 12.7248 87.3033 12.3548 87.1565 12.0394C87.1264 11.9755 87.0652 12.016 87.0469 12.0013C86.8969 11.8756 86.9666 11.5645 86.9565 11.5024C86.8844 11.0418 86.717 10.7345 86.5443 10.349C86.5035 10.2586 86.4659 10.4046 86.4236 10.3195C86.2038 9.87633 85.9748 9.41905 85.7693 8.97889C85.7233 8.8803 85.8434 8.92594 85.8249 8.8766C85.7409 8.65884 85.5829 8.69329 85.4953 8.48847C85.4771 8.44639 85.5495 8.4314 85.5516 8.42033C85.5839 8.24611 85.3789 8.24079 85.3578 8.21495C85.0849 7.88839 85.0686 7.55456 84.8025 7.23361C84.7708 7.19604 84.7658 7.33691 84.6811 7.22843C84.1105 6.49919 83.4852 5.74056 82.8835 5.0294C82.7915 4.92068 82.9096 4.94654 82.9092 4.9345C82.8964 4.74086 82.7077 4.79363 82.6702 4.76549C82.3773 4.54048 82.2111 4.18963 81.8901 4.17134C81.5495 3.83082 81.1784 3.50586 80.7873 3.18646L80.8823 3.24087C79.8156 2.84378 78.885 2.55192 77.8312 2.12743C77.8124 2.12 77.8697 2.04896 77.8319 2.03449C77.3788 1.86151 77.4339 2.01228 77.0919 2.08815C77.0062 2.1073 76.8228 1.86369 76.8055 1.84518C76.7436 1.77665 76.8501 1.67428 76.8276 1.65845C76.6376 1.53147 76.5837 1.94179 76.2986 1.87636C76.2895 1.87359 76.345 1.8084 76.322 1.79543C76.2506 1.75487 76.1682 1.76734 76.0993 1.72545C75.9421 1.62936 75.9215 1.41959 75.639 1.48101C75.6036 1.48948 75.6061 1.72765 75.3533 1.66701C75.2518 1.64171 74.8057 1.5648 74.6854 1.53028C74.5646 1.49477 74.6616 1.43457 74.6533 1.42988C74.3351 1.27702 74.4746 1.25808 74.3202 1.08488C74.1626 0.912639 74.1613 1.26704 74.0837 1.29527C74.0059 1.32315 73.7604 1.20694 73.7012 1.1709C73.6419 1.13453 73.7264 1.097 73.6724 1.07385C73.3143 0.923427 73.4893 1.22679 73.362 1.26773C73.065 1.36648 72.8744 1.08687 72.6204 1.04017C72.5521 1.02769 72.6035 1.09124 72.5419 1.09187C72.3026 1.09448 72.1382 1.00197 71.8491 1.06211C71.8007 1.07169 71.5643 1.21792 71.4206 1.09949C71.4 1.0824 71.4615 1.01919 71.3557 1.00191C71.1975 0.975742 70.9143 0.958503 70.748 0.981372C70.6253 0.998191 70.7665 1.10377 70.6125 1.07206C70.5433 1.05812 70.6727 0.99398 70.5388 0.973182C70.4013 0.951839 70.0561 0.965324 69.9272 0.974346C69.7979 0.982814 69.8729 1.06028 69.8627 1.06621C69.8009 1.10015 69.5595 1.15406 69.5384 1.1558C68.4724 1.23998 67.4474 1.26167 66.415 1.58572C66.3358 1.61081 66.4117 1.67866 66.3999 1.68333C66.1382 1.79345 66.291 1.51453 66.0788 1.49652C66.155 1.65498 66.0335 1.65662 65.8516 1.73368C65.7631 1.77148 65.8328 1.8198 65.8267 1.8289C65.7188 1.97031 65.5827 1.87793 65.5488 1.86099C65.4249 1.79853 65.365 1.94403 65.2815 1.90399C65.1974 1.86478 65.3062 1.72099 65.1224 1.79003C65.0931 1.86718 65.284 1.96884 65.1562 2.04472C64.6849 2.31681 63.6956 2.64978 63.3168 2.86351C62.9251 3.07526 62.8106 3.16679 62.5837 3.28983C62.1775 3.51891 62.3876 3.52113 62.1902 3.73306C61.9922 3.95132 61.9247 3.63223 61.8524 3.60714C61.7802 3.58248 61.7842 3.66231 61.7218 3.6671C61.6592 3.67208 61.721 3.56784 61.6165 3.6341C61.5104 3.70032 61.3279 4.00238 61.3411 4.08053C61.3668 4.24593 61.5722 4.25941 61.3066 4.42826C61.2913 4.43808 61.282 4.34126 61.2258 4.38185C60.7743 4.71345 60.3783 5.1275 59.9846 5.52802C59.9304 5.58306 59.9065 5.47514 59.8741 5.5068C59.5397 5.84068 59.7587 5.8005 59.7387 6.09812C59.599 5.9254 59.4058 5.95754 59.2026 6.25444C59.0818 6.4336 59.1815 6.45483 59.1629 6.60647C59.1575 6.65172 59.0229 6.74547 59.0467 6.79209C59.1246 6.94416 59.3329 6.90699 59.0973 7.1818C59.0868 7.1939 59.0431 7.11089 59.0118 7.15569C58.8115 7.44718 58.9238 7.55732 58.7724 7.90189C58.6537 8.1715 58.3588 8.61687 58.2272 8.93148C58.0023 8.8381 57.9414 9.16631 58.06 9.34283C57.9832 9.54989 57.9228 9.78027 57.8437 9.97966C57.8165 10.0484 57.7616 9.9833 57.7519 9.99021C57.599 10.0975 57.7327 10.2333 57.7274 10.2807C57.6633 10.7964 57.4636 11.1902 57.5146 11.6977C57.5167 11.716 57.6794 11.7654 57.5412 11.88C57.5318 11.8877 57.4755 11.7159 57.4415 11.9462C57.4074 12.1753 57.2788 12.6075 57.3444 12.9356C57.3595 13.0154 57.4896 13.2154 57.3814 13.3713C57.3666 13.3923 57.3185 13.3686 57.2914 13.3989C57.2049 13.4978 57.3751 13.5512 57.2315 13.6688C57.0882 13.7862 56.9834 14.0392 57.103 14.3664C57.1066 14.377 57.2459 14.4467 57.2514 14.5499C57.2597 14.7143 57.2537 14.9505 57.2747 15.1222C57.2847 15.2043 57.3618 15.1418 57.365 15.1559C57.4791 15.6986 57.4705 16.096 57.571 16.6846C57.5892 16.7934 57.7749 17.068 57.7451 17.2936C57.7148 17.5434 57.247 17.4276 57.5037 17.9229C57.6104 18.1257 58.1883 18.2082 58.0755 18.6626C58.4127 19.3369 58.5941 20.0268 59.0629 20.635C59.0838 20.6623 59.2634 20.6789 59.3027 20.7467C59.3611 20.8479 59.338 20.9386 59.3795 21.0121C59.5525 21.3198 59.7878 21.5553 59.9824 21.829C60.0574 21.9334 59.9739 21.9405 60.0655 22.0648C60.158 22.1889 60.2938 22.2106 60.3934 22.3995C60.4682 22.5414 60.4313 22.7887 60.5572 22.9601C60.7012 22.8402 60.7939 22.9502 61.007 23.0997C61.048 23.1283 61.0581 23.0453 61.0799 23.0564C61.1692 23.1002 61.1922 23.2 61.2816 23.237C61.3032 23.2461 61.3488 23.2013 61.3689 23.206C61.5406 23.2439 61.6231 23.5173 61.6384 23.5647C61.6942 23.7444 61.8071 23.7332 61.8766 23.8433C61.9471 23.9536 61.7742 23.8662 61.8709 23.9795C62.0713 24.214 62.393 24.456 62.6419 24.6407C62.7411 24.714 62.7231 24.5955 62.7385 24.6044C62.9554 24.7355 63.1208 24.956 63.3327 24.8913C63.2441 25.3561 63.4836 24.9416 63.7506 25.2062C63.7717 25.2271 63.6981 25.4251 63.5849 25.3926C63.4715 25.3599 63.3601 25.2145 63.2036 25.1694C63.1667 25.1593 62.8815 25.2034 62.8503 25.196C62.6081 25.1423 62.7613 24.8688 62.7615 24.8485C62.7581 24.6218 62.4328 24.6415 62.3669 24.6089C62.0757 24.4707 61.897 24.2677 61.6688 24.1335C61.5201 24.0449 61.3726 24.1852 61.2756 24.0894C60.9518 23.7644 61.0415 23.4545 60.5713 23.3193C60.4712 23.2888 60.3684 23.5074 60.2749 23.146C60.2688 23.1234 60.2264 22.8357 60.0587 22.7936C60.0375 22.7883 59.9885 22.8306 59.9692 22.8161C59.8403 22.7178 59.8132 22.6037 59.6873 22.485C59.5613 22.3662 59.4063 22.2239 59.309 22.0527C59.2495 21.949 59.2606 21.755 59.2532 21.6924C59.2332 21.5144 59.0237 21.4505 59.0566 21.3119C59.0908 21.1737 59.3244 21.2475 59.2451 20.9988C59.098 21.0808 58.9404 21.1543 58.7889 21.2309C58.4907 20.7441 58.2664 20.2194 58.0174 19.7077C57.9864 19.644 57.9353 19.7483 57.8998 19.6802C57.7504 19.3916 57.6991 19.107 57.5545 18.8055C57.4424 18.5725 57.2563 18.3357 57.1489 18.0823C57.2795 17.8648 57.1014 17.5019 57.046 17.2146C57.0263 17.1141 57.0779 17.1079 57.0766 17.0337C57.0722 16.7541 56.9374 16.9176 56.8939 16.8504C56.7108 16.5583 57.0804 16.4507 57.0027 16.0864C56.9984 16.0678 56.7552 15.8621 56.7376 15.8293C56.622 15.6286 56.8023 15.7829 56.7972 15.6477C56.7893 15.4007 56.8163 15.2278 56.7277 14.9488C56.7016 14.868 56.5561 14.6774 56.6439 14.5068C56.6554 14.4845 56.7238 14.4918 56.7267 14.4744C56.7735 14.1605 56.5623 14.1632 56.4835 13.985C56.4049 13.806 56.5504 13.5252 56.5935 13.4701C56.7038 13.3241 56.6399 13.5824 56.6512 13.5904C56.7799 13.6824 56.7559 13.4832 56.7691 13.3314C56.9779 13.3122 56.9702 13.1022 56.7825 13.1739C56.7618 13.1821 56.7789 13.3012 56.7691 13.3314C56.5658 13.196 56.5454 12.9515 56.7517 12.7033C56.8492 12.5878 56.9435 12.7081 56.9337 12.3424C56.9309 12.1763 56.7818 12.2269 56.7573 12.076C56.7019 11.7284 56.8969 11.3087 56.94 10.9647C56.9557 10.839 56.8556 10.9457 56.8639 10.8589C56.8865 10.6282 56.9874 10.441 57.0124 10.209C57.0146 10.1878 56.9223 10.2186 56.9385 10.1478C57.0618 9.61066 57.2525 9.16696 57.4546 8.6309C57.5507 8.37142 57.7021 7.89605 57.8358 7.63974C58.0625 7.19125 58.4646 6.71701 58.6673 6.34565C58.8005 6.10237 58.6998 6.10876 58.7193 5.97744C58.7581 5.72037 59.1581 5.50417 59.2153 5.48072C59.2166 5.47987 59.0907 5.68264 59.2001 5.6058C59.3145 5.59948 59.2139 5.48326 59.2153 5.48072C59.2507 5.46241 59.56 5.09994 59.611 5.01842C59.6376 4.97331 59.5592 4.94524 59.5743 4.92257C59.9308 4.39033 60.3837 3.90246 60.8961 3.50824C60.9058 3.50196 60.9499 3.57926 60.9719 3.56378C61.2806 3.3504 61.4034 3.11847 61.6197 2.87864C61.8301 2.64455 62.0512 2.52147 62.2866 2.54695C62.471 2.40305 62.8004 2.28153 62.9835 2.22459C63.1668 2.16699 63.109 2.00607 63.1221 1.9948C63.532 1.65143 63.872 1.59559 64.3729 1.39933C64.6109 1.30531 65.0852 1.09977 65.3537 0.992904C65.5681 0.906021 65.7007 0.906829 65.888 0.825084C65.9133 0.814144 65.8656 0.749218 65.8728 0.744075C66.0665 0.593982 66.0122 0.802497 66.066 0.821495C66.2619 0.89204 66.3759 0.926422 66.6461 0.802414C66.7076 0.774017 66.8417 0.469318 66.9637 0.42749C67.1213 0.373893 67.0802 0.47993 67.2365 0.424923C67.2499 0.420394 67.2354 0.36293 67.336 0.346271C67.8014 0.268474 68.333 0.224887 68.8357 0.167926C68.9014 0.160678 68.8074 0.0761599 68.9028 0.0642695C69.3504 0.00866265 69.8576 -0.0185858 70.3185 0.0140566C70.432 0.0224184 70.3625 0.0895533 70.3874 0.108409C70.5442 0.222347 70.7396 0.0503038 70.7743 0.0470613C71.5629 -0.0362212 72.2473 0.153194 73.0365 0.154319C73.08 0.153651 73.4439 0.00716329 73.5813 0.1823C73.5909 0.193931 73.7235 0.371532 73.8733 0.28033C73.8827 0.274673 73.7971 0.179908 73.964 0.210395C74.1276 0.240398 74.4218 0.226871 74.6242 0.351321C74.6893 0.390666 74.8256 0.574771 75.0554 0.485274C75.0693 0.478244 75.4464 0.252551 75.5268 0.471484C75.5398 0.507575 75.4793 0.709903 75.7526 0.653907C75.8051 0.643092 75.7263 0.579139 75.86 0.576221C76.0655 0.571693 76.3151 0.682742 76.5817 0.647185C76.632 0.641513 76.8341 0.541099 76.9468 0.679984C76.9644 0.701705 76.9071 0.760356 76.9777 0.785468C77.3132 0.905257 77.6903 0.95407 78.036 1.10012C78.1585 1.15184 78.063 1.2434 78.1869 1.30991C78.3108 1.37631 78.5701 1.48215 78.7252 1.47453C78.8791 1.46643 78.7839 1.24804 78.9905 1.29554C79.7662 1.47382 80.5142 1.80858 81.2959 2.13095L81.5355 2.26823C81.6181 2.34038 81.7003 2.41206 81.7827 2.48301C81.8887 2.57478 81.8417 2.45025 82.0001 2.58239C82.5775 3.05476 83.5829 3.92013 83.92 4.48497C84.2063 4.94873 83.6858 4.51928 83.9304 4.84506C84.047 5.00121 84.3428 5.01445 84.3792 5.04523C84.734 5.34138 84.8621 5.63796 85.1478 5.94717C85.206 6.01042 85.2203 5.89127 85.2692 5.94593C85.4366 6.13248 85.5644 6.3623 85.7089 6.54647C85.7739 6.62928 85.8145 6.57418 85.8683 6.65681C85.9997 6.85785 86.0976 7.04647 86.1747 7.27074C86.1816 7.29105 86.0361 7.2201 86.13 7.36542C86.2827 7.60226 86.4119 7.91706 86.6342 8.16832C86.6994 8.2414 86.8311 8.16949 86.8455 8.4007C86.8483 8.44928 86.666 8.48939 86.918 8.62187C86.9608 8.64411 87.3359 8.89558 87.3082 9.13995C87.301 9.20363 87.2306 9.38932 87.3019 9.48255C87.3121 9.49508 87.3564 9.40313 87.4056 9.48611C87.5782 9.7809 87.7129 10.0998 87.8712 10.4155C87.9133 10.4994 87.9368 10.3386 87.997 10.4652C88.1635 10.8148 88.3067 11.2658 88.399 11.6328C88.4327 11.7674 88.3376 11.6976 88.3337 11.7096C88.2675 11.8997 88.4515 11.9406 88.4765 11.9894C88.6284 12.2921 88.6205 12.5541 88.7156 12.8474C88.7414 12.9283 88.8028 12.8511 88.8137 12.8658C88.9218 13.0202 88.7542 12.9266 88.7651 13.0378C88.7946 13.3492 88.8713 13.6824 88.9372 13.9877C88.9614 14.1 89.0278 13.9567 89.0484 14.058C89.1715 14.6579 89.2422 15.2911 89.2394 15.8866C89.2386 15.9988 89.1634 15.934 89.1493 15.9584C89.0504 16.1255 89.2165 16.3488 89.2337 16.4021C89.3128 16.6432 89.2546 16.7414 89.2725 16.957C89.3645 18.0156 89.2529 19.3155 89.1118 20.2951C88.9299 21.5712 88.6847 22.5343 88.4348 23.7228C88.4185 23.7987 88.5266 23.7431 88.5136 23.8089C88.3428 24.6512 88.0899 25.46 87.8732 26.2917C87.8551 26.3601 87.9686 26.2871 87.9424 26.398C87.8889 26.626 87.7996 26.9031 87.7026 27.1188C87.6556 27.2238 87.6291 27.055 87.5832 27.161C87.4763 27.4071 87.3814 27.6813 87.3097 27.9437C87.2791 28.0561 87.4198 27.9177 87.3733 28.0617C87.0564 29.0454 86.7264 30.008 86.2501 30.9361C86.2173 30.9999 86.0239 30.9931 86.0028 31.1469C86.0462 31.1757 86.1023 31.1965 86.1513 31.2206C85.6442 32.628 85.0259 33.9716 84.4424 35.3428C84.4178 35.4007 84.5493 35.3378 84.5021 35.4501C84.2292 36.0989 83.988 36.7392 83.6194 37.3634C83.583 37.4254 83.4399 37.3252 83.3819 37.5287C83.3718 37.5647 83.2698 37.8648 83.2721 37.9545C83.2729 37.9669 83.3689 37.9448 83.3313 38.0396C83.1118 38.5905 82.855 39.1527 82.5822 39.6792C82.5381 39.764 82.4988 39.6377 82.4667 39.6978C82.2397 40.1243 82.0994 40.6316 81.8539 41.0276C81.6895 41.2923 81.5967 41.1315 81.4013 41.2283C81.3736 41.242 81.299 41.417 81.2175 41.3946C81.0121 41.3387 80.8323 41.166 80.6093 41.1165C80.5613 41.1057 80.5137 41.3626 80.4619 41.1781C80.4585 41.1654 80.4923 40.9786 80.4727 40.9212C80.4592 40.8813 80.3584 40.9023 80.3503 40.8287C80.3423 40.7551 80.4356 40.7159 80.4382 40.6003C80.4404 40.4844 80.3323 40.4916 80.4036 40.2874ZM63.8201 1.98708C64.0133 1.98469 63.91 1.70275 63.7669 1.85075C63.7601 1.85826 63.8101 1.98744 63.8201 1.98708ZM58.4793 20.1153C58.4925 19.8545 58.2516 19.8012 58.2317 19.9908C58.2137 20.1822 58.4763 20.1955 58.4793 20.1153ZM59.8157 22.0438C59.7417 21.7727 59.3743 21.9889 59.6153 22.1674C59.6293 22.1778 59.8202 22.0597 59.8157 22.0438ZM81.651 40.5104C81.6464 40.511 81.5905 40.6365 81.5929 40.641C81.653 40.7447 81.7645 40.4939 81.651 40.5104ZM61.4467 23.6848C61.4251 23.5874 61.2091 23.4721 61.2334 23.5942C61.2532 23.6934 61.474 23.8073 61.4467 23.6848ZM72.6255 0.894096C72.6277 0.8987 72.7231 0.910766 72.7233 0.885551C72.7238 0.804046 72.5882 0.81578 72.6255 0.894096ZM64.664 25.8847C64.1465 25.6081 64.0265 25.1339 64.5464 25.459C64.6423 25.5174 64.281 25.4457 64.3923 25.5401C64.5991 25.7138 64.8524 25.5941 65.0461 25.8148C65.082 25.856 64.6935 25.9023 64.6629 25.8847C64.6633 25.8847 64.6637 25.8847 64.664 25.8847ZM64.0658 2.2675C64.0705 2.26945 64.1968 2.21432 64.1983 2.2095C64.2265 2.09142 63.97 2.20325 64.0658 2.2675ZM78.2084 2.14959C78.2132 2.15938 78.5215 2.25857 78.5342 2.25465C78.7417 2.15402 78.1152 1.95182 78.2084 2.14959ZM58.2193 8.9342C58.2571 9.10461 58.211 9.2697 58.0603 9.34223C58.1126 9.20641 58.1624 9.06887 58.2193 8.9342Z" fill="black"/>
</g>
<defs>
<radialGradient id="paint0_radial_26_224" cx="0" cy="0" r="1" gradientUnits="userSpaceOnUse" gradientTransform="translate(61.9294 230.781) scale(12.4633 33.8554)">
<stop stop-color="#FEF5F5"/>
<stop offset="1" stop-color="#EEC0C0"/>
</radialGradient>
<radialGradient id="paint1_radial_26_224" cx="0" cy="0" r="1" gradientUnits="userSpaceOnUse" gradientTransform="translate(113.144 227.426) scale(11.4496 35.5)">
<stop stop-color="#FEF5F5"/>
<stop offset="1" stop-color="#EEC0C0"/>
</radialGradient>
<radialGradient id="paint2_radial_26_224" cx="0" cy="0" r="1" gradientUnits="userSpaceOnUse" gradientTransform="translate(134.633 184.632) rotate(90) scale(35.5 10.4492)">
<stop stop-color="#FCEDED"/>
<stop offset="1" stop-color="#EEC0C1"/>
</radialGradient>
<radialGradient id="paint3_radial_26_224" cx="0" cy="0" r="1" gradientUnits="userSpaceOnUse" gradientTransform="translate(31.561 188.701) rotate(90) scale(35.5 10.4492)">
<stop stop-color="#FCEDED"/>
<stop offset="1" stop-color="#EEC0C1"/>
</radialGradient>
<radialGradient id="paint4_radial_26_224" cx="0" cy="0" r="1" gradientUnits="userSpaceOnUse" gradientTransform="translate(83 150.426) rotate(90) scale(72.5662 68.8764)">
<stop stop-color="#FCEAEB"/>
<stop offset="1" stop-color="#EEC0C0"/>
</radialGradient>
<radialGradient id="paint5_radial_26_224" cx="0" cy="0" r="1" gradientUnits="userSpaceOnUse" gradientTransform="translate(77 65.992) rotate(87.9834) scale(71.044 73.932)">
<stop stop-color="#FFF6F6"/>
<stop offset="1" stop-color="#EEC0C0"/>
</radialGradient>
<radialGradient id="paint6_radial_26_224" cx="0" cy="0" r="1" gradientUnits="userSpaceOnUse" gradientTransform="translate(60.5 130.426) rotate(-12.6193) scale(34.3293 46.0515)">
<stop stop-color="#FFF2F2"/>
<stop offset="1" stop-color="#F2B6B9"/>
</radialGradient>
</defs>
</svg>
