<svg width="534" height="576" viewBox="0 0 534 576" fill="none" xmlns="http://www.w3.org/2000/svg">
<g id="wolf">
<g id="tail">
<g id="tailbottom">
<path id="Polygon 19" d="M72.245 251.929C71.6232 239.306 89.6528 232.763 106.602 239.46V239.46C111.277 241.307 115.323 243.999 118.233 247.199L153.713 286.21C156.623 289.409 158.267 292.974 158.439 296.455V296.455C159.06 309.077 141.031 315.621 124.082 308.924V308.924C119.407 307.077 115.361 304.384 112.451 301.185L76.9705 262.174C74.0604 258.974 72.4164 255.41 72.245 251.929V251.929Z" fill="#6589BE"/>
<path id="Polygon 27" d="M114.915 298.391C110.161 287.656 125.045 277.636 141.083 280.776V280.776C144.462 281.437 147.539 282.656 150.033 284.32L197.33 315.879C199.824 317.544 201.655 319.6 202.657 321.862V321.862C207.411 332.597 192.527 342.616 176.489 339.477V339.477C173.11 338.816 170.033 337.597 167.539 335.933L120.242 304.373C117.748 302.709 115.917 300.652 114.915 298.391V298.391Z" fill="#6589BE"/>
</g>
<g id="tailtop">
<path id="Polygon 20" d="M120.112 258.213C118.988 275.863 98.0324 284.407 85.577 272.294L85.0563 271.787C82.3722 269.177 80.4484 265.863 79.4902 262.199L63.9501 202.77C62.668 197.867 64.6572 192.628 68.8755 189.8C74.3319 186.141 81.6059 187.707 84.9914 193.27L117.161 246.128C119.353 249.729 120.384 253.951 120.112 258.213Z" fill="#536885"/>
<path id="Polygon 21" d="M60.4797 172.297C61.7221 161.693 75.8458 158.024 85.7312 165.737L91.7422 170.427C93.6776 171.937 95.2595 173.773 96.3679 175.795L128.858 235.068C129.533 236.298 130.023 237.581 130.315 238.881L140.238 282.998C141.485 288.539 138.293 293.55 132.57 295.036V295.036C126.848 296.523 120.14 294.083 116.456 289.176L87.1231 250.101C86.2588 248.949 85.5631 247.719 85.0559 246.445L60.6214 185.081C59.7878 182.987 59.481 180.82 59.7242 178.744L60.4797 172.297Z" fill="#6589BE"/>
<path id="Polygon 22" d="M28.4503 177.398C27.6946 165.375 43.652 160.052 54.4396 168.73L64.8048 177.067C66.9979 178.831 68.6876 181.013 69.7032 183.392L91.9602 235.524C94.7221 241.993 91.6524 248.627 84.8468 250.897V250.897C78.0412 253.167 69.696 250.34 65.5084 244.346L31.7618 196.047C30.2219 193.842 29.3301 191.395 29.1764 188.95L28.4503 177.398Z" fill="#536885"/>
<path id="Polygon 23" d="M57.4813 172.625C58.139 160.596 74.61 157.179 84.307 167.06L93.6243 176.554C95.5957 178.563 97.0182 180.928 97.7482 183.409L113.746 237.789C115.731 244.537 111.906 250.766 104.881 252.223V252.223C97.8566 253.68 89.8999 249.896 86.4431 243.453L58.5858 191.533C57.3146 189.164 56.7157 186.628 56.8494 184.183L57.4813 172.625Z" fill="#536885"/>
<path id="Polygon 24" d="M30.125 125.407C30.5006 120.735 36.8782 119.412 40.7454 123.204L70.5537 152.429C71.4042 153.263 72.0141 154.26 72.3152 155.308L91.6517 222.644C92.4777 225.52 90.8395 228.165 87.8473 228.785L70.6998 232.342C67.7076 232.963 64.3175 231.361 62.827 228.623L27.9346 164.514C27.3914 163.516 27.1474 162.443 27.23 161.416L30.125 125.407Z" fill="#455A78"/>
<path id="Polygon 28" d="M21.8443 145.695L70.5305 175.574L107.756 242.957L82.0765 254.722L28.9801 194.611L21.8443 145.695Z" fill="#455A78"/>
<path id="Polygon 29" d="M60.6407 127.529L95.1597 173.043L105.386 249.342L77.1874 250.983L49.5332 175.699L60.6407 127.529Z" fill="#455A78"/>
<path id="Polygon 25" d="M67.7961 170.78C67.9276 168.374 71.2218 167.69 73.1612 169.667L104.984 202.093C105.378 202.495 105.662 202.968 105.808 203.464L125.443 270.205C125.868 271.649 125.049 272.982 123.546 273.294L104.12 277.323C102.617 277.635 100.914 276.825 100.174 275.447L65.985 211.725C65.7308 211.251 65.611 210.744 65.6377 210.255L67.7961 170.78Z" fill="#6589BE"/>
<path id="Polygon 30" d="M46.8407 218.612C44.763 202.71 65.4823 194.215 80.5856 204.777V204.777C83.6561 206.924 86.0952 209.671 87.6567 212.74L112.769 262.095C115.958 268.364 113.341 275.189 106.703 277.91V277.91C100.065 280.632 91.5487 278.371 86.9684 272.672L50.9085 227.806C48.6662 225.016 47.2631 221.844 46.8407 218.612V218.612Z" fill="#6589BE"/>
<path id="Polygon 26" d="M38.4864 164.402C38.2397 161.749 41.8941 160.777 43.957 162.948L67.6359 187.856C67.9433 188.179 68.1787 188.547 68.3268 188.936L89.5274 244.585C90.0745 246.021 89.335 247.434 87.8267 247.835L76.645 250.808C75.1367 251.209 73.3635 250.463 72.567 249.094L41.7007 196.015C41.4852 195.644 41.3548 195.248 41.318 194.853L38.4864 164.402Z" fill="#6589BE"/>
</g>
</g>
<g id="legback">
<path id="Polygon 24_2" d="M209.03 282.551C220.256 263.497 245.548 259.431 259.596 274.421L267.848 283.227C273.673 289.443 276.524 298.039 275.721 306.969L271.062 358.823C269.718 373.773 258.077 386.383 243.449 388.734V388.734C228.82 391.086 215.423 382.502 211.669 368.371L198.652 319.36C196.41 310.918 197.779 301.645 202.435 293.743L209.03 282.551Z" fill="#5E789E"/>
<path id="Polygon 27_2" d="M296.781 465.784C306.584 473.564 304.221 488.932 292.77 491.869V491.869C290.079 492.56 287.196 492.416 284.476 491.454L250.378 479.407C245.303 477.614 242.09 472.285 242.901 467.008V467.008C243.712 461.732 248.292 458.178 253.556 458.741L288.925 462.52C291.747 462.821 294.477 463.956 296.781 465.784V465.784Z" fill="#5E789E"/>
<g id="Polygon 26_2">
<path d="M230.461 344.845C242.99 338.231 258.477 343.09 261.524 354.59C263.256 361.129 260.392 368.266 254.119 373.042L230.835 390.77C226.94 393.736 221.749 395.035 216.913 394.256C207.591 392.755 202.918 384.303 207.179 376.65L219.359 354.776C221.446 351.027 224.814 347.826 228.991 345.621L230.461 344.845Z" fill="#5E789E"/>
<path d="M234.912 361.645C247.44 355.031 262.928 359.89 265.974 371.39C267.706 377.929 264.842 385.066 258.57 389.842L235.285 407.57C231.39 410.535 226.2 411.835 221.363 411.056C212.041 409.555 207.368 401.103 211.629 393.45L223.809 371.576C225.896 367.827 229.265 364.626 233.441 362.421L234.912 361.645Z" fill="#5E789E"/>
</g>
<path id="Polygon 25_2" d="M203.174 385.256C208.981 374.814 224.096 373.37 232.5 382.454L238.86 389.329C241.242 391.903 243.023 394.924 244.081 398.182L264.617 461.416C266.453 467.07 263.505 473.012 257.813 475.13C252.204 477.217 245.73 474.918 242.77 469.786L203.408 401.542C200.456 396.423 200.368 390.302 203.174 385.256Z" fill="#5E789E"/>
<path id="Polygon 42" d="M310.44 498.057L284.679 490.615L290.275 480.122L310.44 498.057Z" fill="#5E789E"/>
<path id="Polygon 43" d="M315.366 481.374L289.606 473.932L295.201 463.439L315.366 481.374Z" fill="#5E789E"/>
<path id="Polygon 44" d="M318.238 492.868L292.477 485.425L298.073 474.932L318.238 492.868Z" fill="#5E789E"/>
</g>
<g id="armback">
<g id="upperarmback">
<path id="Polygon 22_2" d="M336.417 207.161C338.121 188.711 361.975 182.475 373.353 197.505V197.505C375.279 200.049 376.591 202.986 377.186 206.086L390.27 274.219C391.642 281.363 387.293 288.243 380.238 290.087V290.087C373.183 291.931 365.749 288.132 363.09 281.324L337.732 216.4C336.578 213.447 336.128 210.284 336.417 207.161V207.161Z" fill="#5E789E"/>
<path id="Polygon 35" d="M335.574 162.078C343.48 153.261 356.93 151.89 366.877 158.887V158.887C372.486 162.832 376.19 168.93 377.057 175.641L379.722 196.283C380.588 202.995 378.534 209.679 374.077 214.65V214.65C366.171 223.467 352.721 224.838 342.774 217.841V217.841C337.165 213.896 333.461 207.799 332.594 201.087L329.929 180.445C329.063 173.734 331.117 167.049 335.574 162.078V162.078Z" fill="#5E789E"/>
<path id="Polygon 36" d="M387.219 260.37C382.252 268.405 371.495 270.714 363.305 265.502V265.502C359.988 263.392 357.465 260.251 356.144 256.592L347.979 233.971C346.263 229.216 345.698 224.154 346.331 219.199L348.252 204.16C348.941 198.763 352.947 194.432 358.316 193.28V193.28C363.684 192.128 369.296 194.395 372.412 198.975L381.097 211.739C383.958 215.944 385.79 220.733 386.443 225.717L389.55 249.424C390.052 253.258 389.231 257.116 387.219 260.37V260.37Z" fill="#5E789E"/>
</g>
<g id="forearmback">
<path id="Polygon 31" d="M448.396 361.832L434.432 342.796L443.276 339.009L448.396 361.832Z" fill="#5E789E"/>
<path id="Polygon 38" d="M458.43 329.11L435.486 327.967L435.883 318.344L458.43 329.11Z" fill="#5E789E"/>
<path id="Polygon 32" d="M455.414 357.062L437.173 341.118L449.14 333.926L455.414 357.062Z" fill="#5E789E"/>
<path id="Polygon 33" d="M434.482 362.317L424.114 340.585L438.112 338.867L434.482 362.317Z" fill="#5E789E"/>
<path id="Polygon 37" d="M416.882 355.383L416.779 332.946L428.273 335.754L416.882 355.383Z" fill="#5E789E"/>
<path id="Polygon 23_2" d="M371.356 289.992C364.935 275.949 380.167 261.86 393.897 269.142V269.142C395.854 270.18 397.576 271.602 398.958 273.321L439.699 324.004C443.289 328.469 442.811 334.911 438.602 338.805V338.805C434.392 342.698 427.864 342.737 423.602 338.893L375.23 295.269C373.59 293.789 372.271 291.994 371.356 289.992V289.992Z" fill="#5E789E"/>
<path id="Polygon 34" d="M451.226 339.835C450.68 344.692 447.223 348.733 442.491 350.045L439.268 350.939C436.073 351.824 432.654 351.359 429.818 349.653L419.717 343.577C417.369 342.164 415.577 339.994 414.64 337.427L411.875 329.853C410.398 325.807 411.219 321.282 414.025 318.002L414.888 316.994C417.693 313.714 422.052 312.185 426.302 312.99L434.258 314.496C436.955 315.006 439.394 316.419 441.171 318.5L448.813 327.451C450.959 329.964 451.967 333.247 451.598 336.526L451.226 339.835Z" fill="#5E789E"/>
</g>
</g>
<g id="torso">
<path id="Polygon 17" d="M294.012 150.716C302.448 140.998 315.016 135.893 327.839 136.975L337.817 137.818C353.881 139.174 365.984 153.01 365.193 169.111V169.111C364.621 180.744 357.353 190.989 346.563 195.373L321.317 205.628C310.526 210.011 298.173 207.737 289.65 199.798V199.798C277.855 188.809 276.881 170.452 287.449 158.278L294.012 150.716Z" fill="#6281AD"/>
<path id="Polygon 21_2" d="M361.155 130.477C383.586 137.76 391.97 165.111 377.474 183.714L358.139 208.528C352.656 215.564 344.627 220.164 335.784 221.335L278.411 228.934C257.115 231.754 238.573 214.364 240.024 192.931L240.15 191.079C240.829 181.053 245.909 171.84 254.026 165.915L306.58 127.552C315.39 121.121 326.751 119.307 337.126 122.676L361.155 130.477Z" fill="#6281AD"/>
<path id="Polygon 23_3" d="M278.896 150.943C298.439 137.742 325.158 147.962 330.903 170.835L338.691 201.841C340.79 210.197 339.638 219.039 335.468 226.578L294.283 301.046C286.194 315.672 268.674 322.25 252.958 316.561L246.41 314.191C230.739 308.519 221.489 292.323 224.567 275.943L240.948 188.756C242.625 179.829 247.805 171.944 255.332 166.86L278.896 150.943Z" fill="#6281AD"/>
<path id="Polygon 25_3" d="M238.193 264.07C257.821 257.644 278.598 270.057 282.24 290.387L282.58 292.28C283.772 298.937 282.952 305.799 280.225 311.987L258.691 360.847C250.976 378.354 230.34 386.05 213.044 377.872L210.27 376.56C196.018 369.821 188.269 354.169 191.549 338.749L201.059 294.042C203.58 282.19 212.219 272.575 223.735 268.804L238.193 264.07Z" fill="#6281AD"/>
<path id="Polygon 18" d="M376.964 121.61C391.484 127.273 394.805 146.328 383.057 156.569V156.569C379.444 159.719 374.852 161.52 370.061 161.666L332.567 162.813C324.917 163.047 318.259 157.621 316.945 150.081V150.081C315.631 142.541 320.061 135.182 327.339 132.815L363.011 121.21C367.568 119.728 372.499 119.869 376.964 121.61V121.61Z" fill="#6281AD"/>
<path id="Polygon 20_2" d="M328.917 104.246C326.873 101.227 328.643 97.1062 332.239 96.5096L356.961 92.4085C358.158 92.21 359.387 92.4534 360.417 93.0936L395.83 115.086C397.93 116.39 398.762 119.034 397.786 121.306L392.036 134.697C391.061 136.969 388.571 138.186 386.179 137.562L345.846 127.03C344.672 126.723 343.649 126 342.969 124.996L328.917 104.246Z" fill="#6281AD"/>
<path id="Polygon 22_3" d="M308.714 123.692C306.101 121.149 307 116.755 310.402 115.444L333.783 106.426C334.915 105.989 336.167 105.979 337.306 106.397L376.435 120.77C378.756 121.623 380.106 124.044 379.61 126.466L376.688 140.743C376.192 143.166 374.001 144.862 371.531 144.734L329.901 142.58C328.69 142.517 327.542 142.016 326.673 141.17L308.714 123.692Z" fill="#6281AD"/>
<path id="Polygon 19_2" d="M347.9 184.359C332.314 184.308 322.351 167.729 329.621 153.943V153.943C331.856 149.703 335.491 146.369 339.907 144.506L374.47 129.928C381.522 126.953 389.688 129.617 393.63 136.177V136.177C397.573 142.737 396.092 151.197 390.155 156.028L361.06 179.705C357.343 182.73 352.692 184.375 347.9 184.359V184.359Z" fill="#6281AD"/>
<path id="Polygon 28_2" d="M286.033 111.949C301.232 100.464 322.035 102.621 331.873 116.702L355.481 150.492C361.332 158.866 362.122 169.964 357.584 180.012L328.334 244.765C322.049 258.68 307.046 267.46 292.187 265.919L262.782 262.871C247.923 261.33 237.163 249.879 236.856 235.281L235.43 167.346C235.209 156.805 240.521 146.34 249.561 139.509L286.033 111.949Z" fill="#7393C2"/>
<path id="Polygon 29_2" d="M274.253 130.511C293.138 123.574 313.434 133 317.639 150.659L322.54 171.243C324.259 178.465 322.991 186.172 318.974 192.901L277.425 262.507C273.409 269.236 266.924 274.52 259.199 277.357L237.185 285.442C218.3 292.378 198.004 282.952 193.8 265.293L188.898 244.709C187.179 237.487 188.448 229.78 192.464 223.051L234.013 153.445C238.029 146.716 244.515 141.432 252.239 138.595L274.253 130.511Z" fill="#6589BE"/>
<path id="Polygon 30_2" d="M224.022 199.753C240.843 187.789 263.552 192.065 271.838 208.756L278.737 222.654C283.022 231.286 282.545 241.734 277.45 250.799L237.688 321.555L228.404 334.566C213.662 355.226 182.384 354.963 172.023 334.091L170.776 331.579C167.564 325.11 166.995 317.541 169.171 310.237L192.81 230.873C194.985 223.568 199.763 217.007 206.283 212.369L224.022 199.753Z" fill="#6589BE"/>
<path id="Polygon 31_2" d="M322.464 185.552C342.657 183.144 360.357 197.323 360.067 215.673L359.446 254.843C359.296 264.329 354.233 273.258 345.766 278.973L282.556 321.632C269.719 330.295 252.011 329.702 240.164 320.212L221.266 305.075C209.419 295.585 206.693 279.809 214.739 267.309L254.362 205.757C259.67 197.512 268.921 191.937 279.359 190.692L322.464 185.552Z" fill="#6589BE"/>
<path id="Polygon 32_2" d="M319.733 123.25C331.478 102.515 360.612 101.462 369.614 121.448L377.895 139.835C380.077 144.677 380.691 150.209 379.659 155.729L362.801 245.96C360.286 259.42 348.219 269.917 334.699 270.406V270.406C321.179 270.894 310.47 261.22 309.761 247.876L305.008 158.426C304.717 152.954 306.081 147.351 308.927 142.327L319.733 123.25Z" fill="#6589BE"/>
<g id="backfur">
<path id="Polygon 33_2" d="M267.817 114.774C263.475 113.98 262.72 107.987 266.839 107.008L320.605 94.2251C323.025 93.6496 325.601 95.4806 325.919 98.0024L328.834 121.147C329.152 123.669 327.05 125.603 324.498 125.136L267.817 114.774Z" fill="#7393C2"/>
<path id="Polygon 39" d="M275.827 95.9281C271.484 95.1343 270.73 89.1413 274.848 88.1621L328.614 75.3797C331.035 74.8042 333.611 76.6352 333.928 79.157L336.843 102.302C337.161 104.824 335.059 106.757 332.507 106.291L275.827 95.9281Z" fill="#7393C2"/>
<path id="Polygon 34_2" d="M241.004 139.744C236.59 139.771 234.733 134.024 238.598 132.295L289.047 109.733C291.318 108.717 294.19 110.036 294.971 112.455L302.141 134.654C302.923 137.072 301.217 139.363 298.623 139.379L241.004 139.744Z" fill="#7F9DC6"/>
<path id="Polygon 35_2" d="M208.487 157.792C204.141 157.017 203.36 151.027 207.474 150.03L261.183 137.01C263.601 136.424 266.185 138.244 266.514 140.764L269.531 163.896C269.86 166.416 267.767 168.359 265.213 167.904L208.487 157.792Z" fill="#7393C2"/>
<path id="Polygon 36_2" d="M205.65 169.804C201.836 167.581 203.164 161.688 207.371 162.168L262.279 168.428C264.751 168.709 266.551 171.307 265.993 173.787L260.865 196.544C260.306 199.023 257.672 200.127 255.431 198.821L205.65 169.804Z" fill="#7393C2"/>
<path id="Polygon 37_2" d="M207.029 194.532C202.663 195.182 200.015 189.753 203.597 187.497L250.359 158.045C252.465 156.719 255.494 157.621 256.608 159.905L266.838 180.871C267.952 183.155 266.587 185.663 264.021 186.046L207.029 194.532Z" fill="#7F9DC6"/>
<path id="Polygon 40" d="M259.325 177.571C254.959 178.221 252.311 172.792 255.893 170.536L302.655 141.085C304.761 139.759 307.79 140.66 308.904 142.944L319.134 163.91C320.248 166.194 318.883 168.703 316.317 169.085L259.325 177.571Z" fill="#7393C2"/>
<path id="Polygon 38_2" d="M189.597 217.617C185.231 218.267 182.583 212.839 186.165 210.583L232.927 181.131C235.033 179.805 238.062 180.707 239.176 182.991L249.406 203.956C250.52 206.241 249.155 208.749 246.589 209.131L189.597 217.617Z" fill="#7B98C2"/>
<path id="Polygon 44_2" d="M185.709 238.227C181.361 238.987 178.577 233.627 182.101 231.281L228.109 200.664C230.181 199.286 233.232 200.111 234.403 202.367L245.156 223.069C246.327 225.324 245.025 227.866 242.47 228.312L185.709 238.227Z" fill="#7393C2"/>
<path id="Polygon 43_2" d="M246.486 166.144C242.137 166.903 239.353 161.543 242.878 159.197L288.886 128.581C290.957 127.202 294.008 128.027 295.18 130.283L305.932 150.985C307.104 153.24 305.802 155.782 303.246 156.229L246.486 166.144Z" fill="#6A89B6"/>
<path id="Polygon 48" d="M292.657 156.25C288.309 157.009 285.525 151.649 289.049 149.304L335.057 118.687C337.128 117.308 340.179 118.134 341.351 120.389L352.103 141.091C353.275 143.347 351.973 145.889 349.418 146.335L292.657 156.25Z" fill="#7393C2"/>
<path id="Polygon 47" d="M250.726 150.125C246.378 150.885 243.594 145.524 247.118 143.179L293.126 112.562C295.197 111.184 298.248 112.009 299.42 114.264L310.172 134.966C311.344 137.222 310.042 139.764 307.487 140.21L250.726 150.125Z" fill="#7393C2"/>
<path id="Polygon 49" d="M291.244 138.347C286.895 139.106 284.111 133.746 287.636 131.4L333.644 100.784C335.715 99.4053 338.766 100.23 339.937 102.486L350.69 123.188C351.862 125.443 350.56 127.985 348.004 128.432L291.244 138.347Z" fill="#7393C2"/>
<path id="Polygon 45" d="M171.234 274.356C167.383 276.513 162.981 272.377 165.53 268.997L198.803 224.871C200.301 222.885 203.453 222.653 205.305 224.393L222.307 240.366C224.159 242.107 223.773 244.936 221.509 246.204L171.234 274.356Z" fill="#7393C2"/>
<path id="Polygon 46" d="M194.08 236.339C190.12 238.287 185.944 233.923 188.669 230.683L224.246 188.393C225.848 186.489 229.008 186.426 230.765 188.262L246.891 205.118C248.648 206.955 248.111 209.76 245.783 210.905L194.08 236.339Z" fill="#7F9DC6"/>
<path id="Polygon 42_2" d="M229.184 223.002C225.333 225.159 220.931 221.023 223.479 217.643L256.753 173.518C258.251 171.531 261.403 171.299 263.255 173.04L280.256 189.013C282.109 190.753 281.722 193.583 279.459 194.85L229.184 223.002Z" fill="#6D8EBE"/>
</g>
</g>
<g id="legfront">
<path id="Polygon 41" d="M251.45 530.207L226.409 518.578L232.645 508.672L251.45 530.207Z" fill="#B6C9E4"/>
<path id="Polygon 28_3" d="M174.392 289.676C181.197 268.707 204.515 259.024 220.96 270.337V270.337C227.752 275.01 232.202 282.636 233.256 291.409L238.005 330.933C239.452 342.979 232.479 355.095 221.467 359.668V359.668C210.455 364.24 198.582 359.951 193.309 349.494L176.007 315.182C172.167 307.566 171.582 298.335 174.392 289.676V289.676Z" fill="#6E96CE"/>
<g id="Polygon 26_3">
<path d="M182.003 347.235C196.754 341.675 212.968 350.711 213.913 365.019C214.416 372.639 210.292 379.973 203.144 384.171L173.054 401.841C168.519 404.504 162.871 405.037 157.903 403.272C148.188 399.82 144.584 389.129 150.457 381.187L168.83 356.342C171.598 352.6 175.531 349.675 180.122 347.944L182.003 347.235Z" fill="#7499CE"/>
<path d="M183.371 367.954C198.122 362.393 214.336 371.43 215.281 385.738C215.784 393.358 211.66 400.692 204.512 404.89L174.422 422.559C169.887 425.222 164.239 425.756 159.271 423.99C149.556 420.538 145.952 409.848 151.825 401.906L170.198 377.061C172.966 373.319 176.899 370.394 181.49 368.663L183.371 367.954Z" fill="#7499CE"/>
</g>
<path id="Polygon 24_3" d="M162.943 297.51C168.409 268.817 200.575 254.918 220.613 272.59V272.59C226.306 277.611 230.142 284.634 231.528 292.574L244.023 364.123C246.337 377.375 238.974 391.191 226.791 396.455V396.455C214.608 401.72 201.359 396.811 195.786 384.968L165.697 321.021C162.358 313.925 161.39 305.662 162.943 297.51V297.51Z" fill="#6E96CE"/>
<path id="Polygon 27_3" d="M229.694 503.047C238.883 514.308 233.546 531.052 220.303 532.512V532.512C216.776 532.901 213.137 532.073 209.906 530.146L177.301 510.707C171.705 507.371 168.977 500.284 170.93 494.157V494.157C172.883 488.029 178.909 484.767 185.003 486.538L220.515 496.859C224.034 497.882 227.246 500.048 229.694 503.047V503.047Z" fill="#7499CE"/>
<path id="Polygon 25_4" d="M144.594 390.404C152.975 379.057 169.725 379.694 176.713 391.624L182.587 401.653C184.503 404.924 185.724 408.583 186.171 412.397L195.476 491.766C196.275 498.58 191.789 504.999 185.181 506.499C178.787 507.95 172.454 504.322 170.424 498.045L141.539 408.742C139.54 402.562 140.683 395.698 144.594 390.404Z" fill="#7499CE"/>
<path id="Polygon 40_2" d="M250.485 536.498L224.708 528.423L230.332 516.95L250.485 536.498Z" fill="#B6C9E4"/>
<path id="Polygon 39_2" d="M235.156 545.139L213.056 529.766L220.766 521.258L235.156 545.139Z" fill="#B6C9E4"/>
</g>
<g id="armfront">
<g id="upperarmfront">
<path id="Polygon 22_4" d="M271.259 238.133C274.834 214.641 303.347 205.027 315.812 223.111V223.111C317.994 226.277 319.381 230.023 319.859 234.042L329.793 317.477C330.871 326.533 325.159 335.659 316.607 338.542V338.542C308.055 341.425 299.472 337.12 296.793 328.603L272.115 250.14C270.926 246.36 270.633 242.245 271.259 238.133V238.133Z" fill="#6F99D5"/>
<path id="Polygon 35_3" d="M273.714 182.31C283.896 170.577 300.27 167.721 311.599 175.702V175.702C317.834 180.096 321.66 187.217 322.131 195.306L323.663 221.662C324.134 229.75 321.204 238.05 315.6 244.508V244.508C305.418 256.241 289.044 259.097 277.716 251.115V251.115C271.48 246.722 267.654 239.601 267.184 231.512L265.651 205.156C265.18 197.068 268.11 188.768 273.714 182.31V182.31Z" fill="#6F99D5"/>
<path id="Polygon 36_3" d="M327.271 300.92C320.716 311.355 307.862 315.079 298.556 309.24V309.24C294.72 306.833 291.92 303.031 290.617 298.461L282.376 269.544C280.994 264.695 280.777 259.448 281.741 254.239L285.521 233.832C286.797 226.94 291.921 221.151 298.41 219.271V219.271C304.899 217.391 311.41 219.809 314.788 225.352L324.791 241.766C327.344 245.955 328.838 250.834 329.148 255.993L330.995 286.762C331.286 291.625 329.973 296.619 327.271 300.92V300.92Z" fill="#6F99D5"/>
</g>
<g id="forearmfront">
<path id="Polygon 31_3" d="M391.873 422.702L376.807 400.037L387.641 394.579L391.873 422.702Z" fill="#B6C9E4"/>
<path id="Polygon 38_3" d="M406.484 380.965L379.271 381.406L380.528 369.34L406.484 380.965Z" fill="#B6C9E4"/>
<path id="Polygon 32_3" d="M400.615 416.166L380.206 397.714L395.035 387.744L400.615 416.166Z" fill="#B6C9E4"/>
<path id="Polygon 33_3" d="M375.275 424.443L364.708 398.113L381.507 394.823L375.275 424.443Z" fill="#B6C9E4"/>
<path id="Polygon 37_3" d="M354.894 417.208L356.6 389.158L370.051 391.732L354.894 417.208Z" fill="#B6C9E4"/>
<path id="Polygon 23_4" d="M305.669 338.164C298.723 319.947 316.825 302.235 333.662 310.776V310.776C336.497 312.214 338.976 314.32 340.904 316.931L383.654 374.815C388.114 380.853 387.438 389.478 382.095 394.705V394.705C376.752 399.932 368.505 400.039 363.074 394.95L311.018 346.173C308.67 343.973 306.839 341.232 305.669 338.164V338.164Z" fill="#6F99D5"/>
<path id="Polygon 34_3" d="M396.504 398.074C395.764 402.406 392.787 405.979 388.724 407.414L380.93 410.166C377.689 411.311 374.116 410.962 371.135 409.21L359.229 402.211C356.572 400.65 354.605 398.102 353.737 395.099L350.528 384.001C349.391 380.07 350.269 375.825 352.861 372.713L357.331 367.347C359.923 364.235 363.88 362.676 367.854 363.201L379.073 364.683C382.108 365.084 384.879 366.667 386.807 369.103L395.449 380.022C397.612 382.755 398.515 386.308 397.924 389.764L396.504 398.074Z" fill="#6F99D5"/>
</g>
</g>
<g id="jaw">
<path id="Polygon 9" d="M468.991 114.636L466.911 136.099L455.194 131.209L468.991 114.636Z" fill="#EEEFDA"/>
<path id="Polygon 28_4" d="M452.606 115.318L450.526 136.781L438.809 131.89L452.606 115.318Z" fill="#EEEFDA"/>
<path id="Polygon 10" d="M488.535 113.272L482.007 145.392L470.291 140.502L488.535 113.272Z" fill="#EEEFDA"/>
<path id="Polygon 11" d="M493.513 127.59L491.433 149.053L479.716 144.163L493.513 127.59Z" fill="#EEEFDA"/>
<path id="Polygon 27_4" d="M391.45 132.425C379.139 126.464 383.831 107.91 397.496 108.518V108.518C398.553 108.565 399.6 108.745 400.612 109.054L486.73 135.344C490.917 136.623 493.365 140.963 492.291 145.208V145.208C491.218 149.452 487.002 152.108 482.71 151.242L394.447 133.435C393.409 133.225 392.403 132.886 391.45 132.425V132.425Z" fill="#7393C2"/>
<path id="Polygon 29_3" d="M470.842 130.517C486.676 134.536 487.407 156.759 471.871 161.81V161.81C470.061 162.398 468.161 162.665 466.259 162.598L387.05 159.804C381.328 159.603 376.741 155.004 376.553 149.282V149.282C376.364 143.561 380.64 138.671 386.335 138.093L465.189 130.1C467.083 129.908 468.996 130.049 470.842 130.517V130.517Z" fill="#7393C2"/>
</g>
<g id="wtophead">
<path id="Polygon 6" d="M480.403 125.175L467.701 89.9617L487.72 88.4629L480.403 125.175Z" fill="#EEEFDA"/>
<path id="Polygon 29_4" d="M327.806 38.3638C326.48 32.9283 332.659 28.7971 337.175 32.0985L376.633 60.9389C379.998 63.3982 379.892 68.4541 376.427 70.7706L348.547 89.4133C345.083 91.7298 340.37 89.8957 339.383 85.8468L327.806 38.3638Z" fill="#627EA7"/>
<path id="Polygon 7" d="M504.64 101.85L485.093 78.6417L503.861 71.5167L504.64 101.85Z" fill="#EEEFDA"/>
<path id="Polygon 37_4" d="M451.462 117.531L431.915 94.3228L450.683 87.1978L451.462 117.531Z" fill="#EEEFDA"/>
<path id="Polygon 5" d="M425.106 128.549C419.866 134.053 411.61 135.411 404.883 131.875L356.009 106.185C341.574 98.5976 345.068 77.0091 361.159 74.3626L448.107 60.0623C464.198 57.4157 474.422 76.7479 463.178 88.5588L425.106 128.549Z" fill="#7198CE"/>
<path id="Polygon 8" d="M494.244 105.351L476.329 80.8618L495.54 75.0358L494.244 105.351Z" fill="#EEEFDA"/>
<path id="Polygon 36_4" d="M467.655 116.26L449.739 91.7703L468.95 85.9443L467.655 116.26Z" fill="#EEEFDA"/>
<path id="Polygon 13" d="M397.622 114.089C373.5 108.48 368.141 76.5387 389.112 63.3642V63.3642C393.006 60.9179 397.445 59.4736 402.033 59.1602L488.158 53.2763C498.099 52.5972 506.933 59.5699 508.582 69.3961V69.3961C510.23 79.2223 504.155 88.6963 494.538 91.2986L411.208 113.846C406.769 115.047 402.101 115.13 397.622 114.089V114.089Z" fill="#7198CE"/>
<path id="Polygon 14" d="M416.664 91.9882C399.202 86.9036 396.27 63.4086 411.948 54.1896V54.1896C414.998 52.3959 418.457 51.4123 421.995 51.3324L483.316 49.9478C490.751 49.7799 497.106 55.2651 498.026 62.6441V62.6441C498.947 70.023 494.134 76.9016 486.887 78.5654L427.104 92.2894C423.655 93.0812 420.061 92.9775 416.664 91.9882V91.9882Z" fill="#7198CE"/>
<path id="Polygon 15" d="M436.955 103.182C420.664 97.6071 414.644 77.6957 425.118 64.0297V64.0297C429.213 58.6861 435.277 55.2044 441.957 54.3618L475.443 50.1376C484.859 48.9497 493.759 54.7279 496.505 63.8125V63.8125C499.252 72.8971 495.044 82.6379 486.547 86.8657L456.329 101.901C450.302 104.9 443.324 105.361 436.955 103.182V103.182Z" fill="#7198CE"/>
<path id="Polygon 12" d="M487.541 67.6864C480.851 63.3033 482.86 53.0105 490.707 51.465V51.465C496.927 50.24 502.405 55.709 501.191 61.931V61.931C499.976 68.153 492.843 71.1605 487.541 67.6864V67.6864Z" fill="#4F3F3F"/>
<path id="Polygon 16" d="M407.567 46.116C438.643 57.5484 433.353 103.027 400.483 107.022V107.022C395.519 107.625 390.483 107.039 385.79 105.312V105.312C354.714 93.8802 360.004 48.4018 392.873 44.407V44.407C397.838 43.8037 402.874 44.3895 407.567 46.116V46.116Z" fill="#7198CE"/>
<path id="Polygon 30_3" d="M416.046 107.971C427.91 121.034 423.592 141.868 407.514 149.141L403.998 150.731C397.601 153.625 390.306 153.808 383.772 151.24L348.638 137.431C338.75 133.544 333.099 123.1 335.255 112.697V112.697C337.411 102.293 346.747 94.9554 357.366 95.3187L395.093 96.6094C402.11 96.8495 408.731 99.917 413.452 105.114L416.046 107.971Z" fill="#759FDA"/>
<path id="Polygon 35_4" d="M410.312 89.4426C413.121 93.8381 410.309 99.6521 405.119 100.177L394.654 101.236C393.023 101.402 391.386 100.989 390.027 100.07L368.959 85.8179C366.078 83.8694 365.065 80.102 366.58 76.9716L368.195 73.6314C369.71 70.501 373.292 68.9569 376.608 70.0057L400.86 77.6774C402.423 78.172 403.763 79.1996 404.646 80.5811L410.312 89.4426Z" fill="#5C7DAC"/>
<g id="eyebottom">
<path id="Ellipse 53" d="M378.224 74.6607C377.274 76.5599 376.652 78.6198 376.396 80.723C376.139 82.8261 376.252 84.9313 376.728 86.9183C377.204 88.9052 378.034 90.7351 379.17 92.3034C380.307 93.8717 381.727 95.1477 383.351 96.0586C384.975 96.9695 386.771 97.4973 388.635 97.6121C390.499 97.7269 392.395 97.4263 394.216 96.7274C396.036 96.0286 397.745 94.9453 399.245 93.5393C400.744 92.1333 402.006 90.4322 402.956 88.533L390.59 81.5969L378.224 74.6607Z" fill="#3F3F3F"/>
<path id="Ellipse 54" d="M384.471 79.5873C383.951 80.6254 383.611 81.7514 383.471 82.9009C383.331 84.0505 383.392 85.2012 383.653 86.2873C383.913 87.3734 384.366 88.3736 384.988 89.2309C385.609 90.0881 386.385 90.7856 387.273 91.2835C388.161 91.7814 389.142 92.0699 390.161 92.1326C391.18 92.1954 392.216 92.0311 393.212 91.6491C394.207 91.2671 395.141 90.675 395.96 89.9064C396.78 89.1379 397.47 88.208 397.989 87.17L391.23 83.3786L384.471 79.5873Z" fill="white"/>
<line id="Line 1" x1="403.315" y1="90.3594" x2="351.019" y2="60.2068" stroke="#3F3F3F" stroke-width="15"/>
</g>
<g id="eyetop">
<path id="Ellipse 55" d="M422.921 50.5355C424.63 49.2754 426.12 47.7225 427.304 45.9654C428.488 44.2084 429.344 42.2817 429.822 40.2952C430.3 38.3088 430.392 36.3016 430.092 34.3882C429.792 32.4748 429.106 30.6927 428.073 29.1436C427.04 27.5945 425.68 26.3088 424.071 25.3599C422.463 24.4109 420.637 23.8174 418.697 23.613C416.758 23.4087 414.744 23.5977 412.769 24.1691C410.794 24.7405 408.898 25.6832 407.189 26.9433L415.055 38.7394L422.921 50.5355Z" fill="#3F3F3F"/>
<path id="Ellipse 56" d="M419.594 43.3094C420.528 42.6206 421.342 41.7717 421.99 40.8113C422.637 39.8509 423.104 38.7978 423.366 37.712C423.627 36.6262 423.678 35.529 423.513 34.4832C423.349 33.4373 422.974 32.4632 422.41 31.6164C421.845 30.7697 421.102 30.0669 420.223 29.5482C419.343 29.0295 418.345 28.7051 417.285 28.5934C416.225 28.4817 415.124 28.585 414.045 28.8973C412.965 29.2097 411.929 29.725 410.994 30.4138L415.294 36.8616L419.594 43.3094Z" fill="white"/>
<line id="Line 2" x1="396.473" y1="11.2031" x2="422.37" y2="46.3826" stroke="#3F3F3F" stroke-width="7"/>
</g>
<path id="Polygon 28_5" d="M284.52 51.1598C280.003 44.7139 286.532 36.3043 293.896 39.0836L363.619 65.3963C368.658 67.2977 370.416 73.5334 367.114 77.787L340.162 112.501C336.86 116.755 330.383 116.596 327.292 112.187L284.52 51.1598Z" fill="#698EC3"/>
<path id="Polygon 33_4" d="M300.832 62.5623C296.478 56.1505 302.873 47.9132 310.164 50.5424L330.99 58.0521C336.102 59.8957 337.928 66.191 334.595 70.4838L326.206 81.2887C322.873 85.5815 316.322 85.3729 313.269 80.8769L300.832 62.5623Z" fill="#89B0E8"/>
<path id="Polygon 31_4" d="M326.085 159.876C320.016 160.344 315.668 154.13 318.188 148.588L337.995 105.026C340.558 99.3875 348.281 98.6759 351.832 103.751L379.738 143.636C383.289 148.711 379.973 155.722 373.798 156.198L326.085 159.876Z" fill="#759FDA"/>
<path id="Polygon 32_4" d="M321.026 121.894C313.542 120.351 312.274 110.197 319.149 106.861L349.617 92.0764C354.547 89.684 360.369 92.8447 361.048 98.2824L363.748 119.906C364.427 125.343 359.562 129.839 354.194 128.732L321.026 121.894Z" fill="#759FDA"/>
<path id="Polygon 38_4" d="M443.082 55.1443C452.321 56.066 452.837 69.3445 443.697 70.9798L415.789 75.9726C411.008 76.8279 406.574 73.2609 406.386 68.408L406.083 60.601C405.894 55.748 410.038 51.8481 414.871 52.3301L443.082 55.1443Z" fill="#698EC3"/>
<path id="Polygon 34_4" d="M370.164 169.957C364.523 175.111 355.557 170.179 356.89 162.655L362.799 129.309C363.755 123.913 369.73 121.054 374.532 123.695L393.625 134.198C398.426 136.839 399.211 143.417 395.165 147.113L370.164 169.957Z" fill="#759FDA"/>
</g>
</g>
</svg>
