<svg width="613" height="403" viewBox="0 0 613 403" fill="none" xmlns="http://www.w3.org/2000/svg">
<g id="brickhouse">
<rect id="Rectangle 80" x="45" y="359" width="521" height="44" fill="#F8F1F1"/>
<path id="Subtract" d="M612.368 119H0L198.684 0H413.685L612.368 119Z" fill="#5E3737"/>
<rect id="Rectangle 116" x="114.5" y="302.5" width="32" height="18" fill="#D89898" stroke="#E4D9D9"/>
<rect id="Rectangle 83" x="65.5" y="340.5" width="32" height="18" fill="#F8F1F1" stroke="#E4D9D9"/>
<rect id="Rectangle 96" x="524.5" y="340.5" width="32" height="18" fill="#F8F1F1" stroke="#E4D9D9"/>
<rect id="Rectangle 89" x="65.5" y="226.5" width="32" height="18" fill="#F8F1F1" stroke="#E4D9D9"/>
<rect id="Rectangle 97" x="524.5" y="226.5" width="32" height="18" fill="#F8F1F1" stroke="#E4D9D9"/>
<rect id="Rectangle 86" x="65.5" y="283.5" width="32" height="18" fill="#F8F1F1" stroke="#E4D9D9"/>
<rect id="Rectangle 109" x="98.5" y="339.5" width="147" height="20" fill="#F8F1F1" stroke="#E4D9D9"/>
<rect id="Rectangle 110" x="372.5" y="338.5" width="151" height="20" fill="#F8F1F1" stroke="#E4D9D9"/>
<rect id="Rectangle 98" x="524.5" y="283.5" width="32" height="18" fill="#F8F1F1" stroke="#E4D9D9"/>
<rect id="Rectangle 90" x="65.5" y="169.5" width="32" height="18" fill="#F8F1F1" stroke="#E4D9D9"/>
<rect id="Rectangle 99" x="524.5" y="169.5" width="32" height="18" fill="#F8F1F1" stroke="#E4D9D9"/>
<rect id="Rectangle 84" x="65.5" y="321.5" width="32" height="18" fill="#F8F1F1" stroke="#E4D9D9"/>
<rect id="Rectangle 113" x="98.5" y="321.5" width="32" height="18" fill="#D89898" stroke="#E4D9D9"/>
<rect id="Rectangle 168" x="376.5" y="319.5" width="32" height="18" fill="#D89898" stroke="#E4D9D9"/>
<rect id="Rectangle 123" x="98.5" y="283.5" width="32" height="18" fill="#D89898" stroke="#E4D9D9"/>
<rect id="Rectangle 169" x="376.5" y="281.5" width="32" height="18" fill="#D89898" stroke="#E4D9D9"/>
<rect id="Rectangle 127" x="115.5" y="264.5" width="32" height="18" fill="#D89898" stroke="#E4D9D9"/>
<rect id="Rectangle 170" x="393.5" y="262.5" width="32" height="18" fill="#D89898" stroke="#E4D9D9"/>
<rect id="Rectangle 131" x="99.5" y="245.5" width="32" height="18" fill="#D89898" stroke="#E4D9D9"/>
<rect id="Rectangle 171" x="376.5" y="243.5" width="33" height="18" fill="#D89898" stroke="#E4D9D9"/>
<rect id="Rectangle 135" x="115.5" y="226.5" width="32" height="18" fill="#D89898" stroke="#E4D9D9"/>
<rect id="Rectangle 172" x="393.5" y="224.5" width="32" height="18" fill="#D89898" stroke="#E4D9D9"/>
<rect id="Rectangle 139" x="99.5" y="207.5" width="32" height="18" fill="#D89898" stroke="#E4D9D9"/>
<rect id="Rectangle 173" x="376.5" y="205.5" width="33" height="18" fill="#D89898" stroke="#E4D9D9"/>
<rect id="Rectangle 143" x="116.5" y="188.5" width="32" height="18" fill="#D89898" stroke="#E4D9D9"/>
<rect id="Rectangle 174" x="393.5" y="186.5" width="33" height="18" fill="#D89898" stroke="#E4D9D9"/>
<rect id="Rectangle 147" x="98.5" y="169.5" width="32" height="18" fill="#D89898" stroke="#E4D9D9"/>
<rect id="Rectangle 175" x="376.5" y="167.5" width="32" height="18" fill="#D89898" stroke="#E4D9D9"/>
<rect id="Rectangle 151" x="115.5" y="150.5" width="32" height="18" fill="#D89898" stroke="#E4D9D9"/>
<rect id="Rectangle 176" x="393.5" y="148.5" width="32" height="18" fill="#D89898" stroke="#E4D9D9"/>
<rect id="Rectangle 155" x="98.5" y="131.5" width="32" height="18" fill="#D89898" stroke="#E4D9D9"/>
<rect id="Rectangle 177" x="376.5" y="129.5" width="32" height="18" fill="#D89898" stroke="#E4D9D9"/>
<rect id="Rectangle 114" x="131.5" y="321.5" width="32" height="18" fill="#D89898" stroke="#E4D9D9"/>
<rect id="Rectangle 178" x="409.5" y="319.5" width="32" height="18" fill="#D89898" stroke="#E4D9D9"/>
<rect id="Rectangle 117" x="147.5" y="302.5" width="32" height="18" fill="#D89898" stroke="#E4D9D9"/>
<rect id="Rectangle 179" x="425.5" y="300.5" width="32" height="18" fill="#D89898" stroke="#E4D9D9"/>
<rect id="Rectangle 222" x="392.5" y="300.5" width="32" height="18" fill="#D89898" stroke="#E4D9D9"/>
<rect id="Rectangle 124" x="131.5" y="283.5" width="32" height="18" fill="#D89898" stroke="#E4D9D9"/>
<rect id="Rectangle 180" x="409.5" y="281.5" width="32" height="18" fill="#D89898" stroke="#E4D9D9"/>
<rect id="Rectangle 128" x="148.5" y="264.5" width="32" height="18" fill="#D89898" stroke="#E4D9D9"/>
<rect id="Rectangle 181" x="426.5" y="262.5" width="32" height="18" fill="#D89898" stroke="#E4D9D9"/>
<rect id="Rectangle 132" x="132.5" y="245.5" width="32" height="18" fill="#D89898" stroke="#E4D9D9"/>
<rect id="Rectangle 182" x="410.5" y="243.5" width="32" height="18" fill="#D89898" stroke="#E4D9D9"/>
<rect id="Rectangle 136" x="148.5" y="226.5" width="32" height="18" fill="#D89898" stroke="#E4D9D9"/>
<rect id="Rectangle 183" x="426.5" y="224.5" width="32" height="18" fill="#D89898" stroke="#E4D9D9"/>
<rect id="Rectangle 140" x="132.5" y="207.5" width="32" height="18" fill="#D89898" stroke="#E4D9D9"/>
<rect id="Rectangle 184" x="410.5" y="205.5" width="32" height="18" fill="#D89898" stroke="#E4D9D9"/>
<rect id="Rectangle 144" x="149.5" y="188.5" width="32" height="18" fill="#D89898" stroke="#E4D9D9"/>
<rect id="Rectangle 185" x="427.5" y="186.5" width="32" height="18" fill="#D89898" stroke="#E4D9D9"/>
<rect id="Rectangle 148" x="131.5" y="169.5" width="32" height="18" fill="#D89898" stroke="#E4D9D9"/>
<rect id="Rectangle 186" x="409.5" y="167.5" width="32" height="18" fill="#D89898" stroke="#E4D9D9"/>
<rect id="Rectangle 152" x="148.5" y="150.5" width="32" height="18" fill="#D89898" stroke="#E4D9D9"/>
<rect id="Rectangle 187" x="426.5" y="148.5" width="32" height="18" fill="#D89898" stroke="#E4D9D9"/>
<rect id="Rectangle 156" x="131.5" y="131.5" width="32" height="18" fill="#D89898" stroke="#E4D9D9"/>
<rect id="Rectangle 188" x="409.5" y="129.5" width="32" height="18" fill="#D89898" stroke="#E4D9D9"/>
<rect id="Rectangle 115" x="164.5" y="321.5" width="32" height="18" fill="#D89898" stroke="#E4D9D9"/>
<rect id="Rectangle 189" x="442.5" y="319.5" width="32" height="18" fill="#D89898" stroke="#E4D9D9"/>
<rect id="Rectangle 119" x="197.5" y="321.5" width="32" height="18" fill="#D89898" stroke="#E4D9D9"/>
<rect id="Rectangle 190" x="475.5" y="319.5" width="32" height="18" fill="#D89898" stroke="#E4D9D9"/>
<rect id="Rectangle 120" x="230.5" y="321.5" width="15" height="18" fill="#D89898" stroke="#E4D9D9"/>
<rect id="Rectangle 191" x="508.5" y="319.5" width="15" height="18" fill="#D89898" stroke="#E4D9D9"/>
<rect id="Rectangle 164" x="230.5" y="245.5" width="15" height="18" fill="#D89898" stroke="#E4D9D9"/>
<rect id="Rectangle 192" x="509.5" y="243.5" width="14" height="18" fill="#D89898" stroke="#E4D9D9"/>
<rect id="Rectangle 166" x="230.5" y="169.5" width="15" height="18" fill="#D89898" stroke="#E4D9D9"/>
<rect id="Rectangle 193" x="508.5" y="167.5" width="15" height="18" fill="#D89898" stroke="#E4D9D9"/>
<rect id="Rectangle 163" x="230.5" y="283.5" width="15" height="18" fill="#D89898" stroke="#E4D9D9"/>
<rect id="Rectangle 194" x="508.5" y="281.5" width="15" height="18" fill="#D89898" stroke="#E4D9D9"/>
<rect id="Rectangle 165" x="230.5" y="207.5" width="15" height="18" fill="#D89898" stroke="#E4D9D9"/>
<rect id="Rectangle 195" x="509.5" y="205.5" width="14" height="18" fill="#D89898" stroke="#E4D9D9"/>
<rect id="Rectangle 167" x="230.5" y="131.5" width="15" height="18" fill="#D89898" stroke="#E4D9D9"/>
<rect id="Rectangle 196" x="508.5" y="129.5" width="15" height="18" fill="#D89898" stroke="#E4D9D9"/>
<rect id="Rectangle 121" x="98.5" y="302.5" width="15" height="18" fill="#D89898" stroke="#E4D9D9"/>
<rect id="Rectangle 197" x="376.5" y="300.5" width="15" height="18" fill="#D89898" stroke="#E4D9D9"/>
<rect id="Rectangle 160" x="99.5" y="226.5" width="15" height="18" fill="#D89898" stroke="#E4D9D9"/>
<rect id="Rectangle 198" x="376.5" y="224.5" width="16" height="18" fill="#D89898" stroke="#E4D9D9"/>
<rect id="Rectangle 159" x="99.5" y="264.5" width="15" height="18" fill="#D89898" stroke="#E4D9D9"/>
<rect id="Rectangle 199" x="376.5" y="262.5" width="16" height="18" fill="#D89898" stroke="#E4D9D9"/>
<rect id="Rectangle 161" x="100.5" y="188.5" width="15" height="18" fill="#D89898" stroke="#E4D9D9"/>
<rect id="Rectangle 200" x="376.5" y="186.5" width="16" height="18" fill="#D89898" stroke="#E4D9D9"/>
<rect id="Rectangle 162" x="98.5" y="150.5" width="15" height="18" fill="#D89898" stroke="#E4D9D9"/>
<rect id="Rectangle 201" x="376.5" y="148.5" width="16" height="18" fill="#D89898" stroke="#E4D9D9"/>
<rect id="Rectangle 118" x="180.5" y="302.5" width="32" height="18" fill="#D89898" stroke="#E4D9D9"/>
<rect id="Rectangle 202" x="458.5" y="300.5" width="32" height="18" fill="#D89898" stroke="#E4D9D9"/>
<rect id="Rectangle 125" x="164.5" y="283.5" width="32" height="18" fill="#D89898" stroke="#E4D9D9"/>
<rect id="Rectangle 203" x="442.5" y="281.5" width="32" height="18" fill="#D89898" stroke="#E4D9D9"/>
<rect id="Rectangle 129" x="181.5" y="264.5" width="32" height="18" fill="#D89898" stroke="#E4D9D9"/>
<rect id="Rectangle 204" x="459.5" y="262.5" width="32" height="18" fill="#D89898" stroke="#E4D9D9"/>
<rect id="Rectangle 133" x="165.5" y="245.5" width="32" height="18" fill="#D89898" stroke="#E4D9D9"/>
<rect id="Rectangle 205" x="443.5" y="243.5" width="32" height="18" fill="#D89898" stroke="#E4D9D9"/>
<rect id="Rectangle 137" x="181.5" y="226.5" width="32" height="18" fill="#D89898" stroke="#E4D9D9"/>
<rect id="Rectangle 206" x="459.5" y="224.5" width="32" height="18" fill="#D89898" stroke="#E4D9D9"/>
<rect id="Rectangle 141" x="165.5" y="207.5" width="32" height="18" fill="#D89898" stroke="#E4D9D9"/>
<rect id="Rectangle 207" x="443.5" y="205.5" width="32" height="18" fill="#D89898" stroke="#E4D9D9"/>
<rect id="Rectangle 145" x="182.5" y="188.5" width="32" height="18" fill="#D89898" stroke="#E4D9D9"/>
<rect id="Rectangle 208" x="460.5" y="186.5" width="32" height="18" fill="#D89898" stroke="#E4D9D9"/>
<rect id="Rectangle 149" x="164.5" y="169.5" width="32" height="18" fill="#D89898" stroke="#E4D9D9"/>
<rect id="Rectangle 209" x="442.5" y="167.5" width="32" height="18" fill="#D89898" stroke="#E4D9D9"/>
<rect id="Rectangle 153" x="181.5" y="150.5" width="32" height="18" fill="#D89898" stroke="#E4D9D9"/>
<rect id="Rectangle 210" x="459.5" y="148.5" width="32" height="18" fill="#D89898" stroke="#E4D9D9"/>
<rect id="Rectangle 157" x="164.5" y="131.5" width="32" height="18" fill="#D89898" stroke="#E4D9D9"/>
<rect id="Rectangle 211" x="442.5" y="129.5" width="32" height="18" fill="#D89898" stroke="#E4D9D9"/>
<rect id="Rectangle 122" x="213.5" y="302.5" width="32" height="18" fill="#D89898" stroke="#E4D9D9"/>
<rect id="Rectangle 212" x="491.5" y="300.5" width="32" height="18" fill="#D89898" stroke="#E4D9D9"/>
<rect id="Rectangle 126" x="197.5" y="283.5" width="32" height="18" fill="#D89898" stroke="#E4D9D9"/>
<rect id="Rectangle 213" x="475.5" y="281.5" width="32" height="18" fill="#D89898" stroke="#E4D9D9"/>
<rect id="Rectangle 130" x="214.5" y="264.5" width="31" height="18" fill="#D89898" stroke="#E4D9D9"/>
<rect id="Rectangle 214" x="492.5" y="262.5" width="31" height="18" fill="#D89898" stroke="#E4D9D9"/>
<rect id="Rectangle 134" x="198.5" y="245.5" width="32" height="18" fill="#D89898" stroke="#E4D9D9"/>
<rect id="Rectangle 215" x="476.5" y="243.5" width="32" height="18" fill="#D89898" stroke="#E4D9D9"/>
<rect id="Rectangle 138" x="214.5" y="226.5" width="31" height="18" fill="#D89898" stroke="#E4D9D9"/>
<rect id="Rectangle 216" x="492.5" y="224.5" width="31" height="18" fill="#D89898" stroke="#E4D9D9"/>
<rect id="Rectangle 142" x="198.5" y="207.5" width="32" height="18" fill="#D89898" stroke="#E4D9D9"/>
<rect id="Rectangle 217" x="476.5" y="205.5" width="32" height="18" fill="#D89898" stroke="#E4D9D9"/>
<rect id="Rectangle 146" x="215.5" y="188.5" width="30" height="18" fill="#D89898" stroke="#E4D9D9"/>
<rect id="Rectangle 218" x="493.5" y="186.5" width="30" height="18" fill="#D89898" stroke="#E4D9D9"/>
<rect id="Rectangle 150" x="197.5" y="169.5" width="32" height="18" fill="#D89898" stroke="#E4D9D9"/>
<rect id="Rectangle 219" x="475.5" y="167.5" width="32" height="18" fill="#D89898" stroke="#E4D9D9"/>
<rect id="Rectangle 154" x="214.5" y="150.5" width="31" height="18" fill="#D89898" stroke="#E4D9D9"/>
<rect id="Rectangle 220" x="492.5" y="148.5" width="31" height="18" fill="#D89898" stroke="#E4D9D9"/>
<rect id="Rectangle 158" x="197.5" y="131.5" width="32" height="18" fill="#D89898" stroke="#E4D9D9"/>
<rect id="Rectangle 221" x="475.5" y="129.5" width="32" height="18" fill="#D89898" stroke="#E4D9D9"/>
<rect id="Rectangle 100" x="524.5" y="321.5" width="32" height="18" fill="#F8F1F1" stroke="#E4D9D9"/>
<rect id="Rectangle 91" x="65.5" y="207.5" width="32" height="18" fill="#F8F1F1" stroke="#E4D9D9"/>
<rect id="Rectangle 101" x="524.5" y="207.5" width="32" height="18" fill="#F8F1F1" stroke="#E4D9D9"/>
<rect id="Rectangle 87" x="65.5" y="264.5" width="32" height="18" fill="#F8F1F1" stroke="#E4D9D9"/>
<rect id="Rectangle 102" x="524.5" y="264.5" width="32" height="18" fill="#F8F1F1" stroke="#E4D9D9"/>
<rect id="Rectangle 92" x="65.5" y="150.5" width="32" height="18" fill="#F8F1F1" stroke="#E4D9D9"/>
<rect id="Rectangle 103" x="524.5" y="150.5" width="32" height="18" fill="#F8F1F1" stroke="#E4D9D9"/>
<rect id="Rectangle 85" x="65.5" y="302.5" width="32" height="18" fill="#F8F1F1" stroke="#E4D9D9"/>
<rect id="Rectangle 104" x="524.5" y="302.5" width="32" height="18" fill="#F8F1F1" stroke="#E4D9D9"/>
<rect id="Rectangle 93" x="65.5" y="188.5" width="32" height="18" fill="#F8F1F1" stroke="#E4D9D9"/>
<rect id="Rectangle 105" x="524.5" y="188.5" width="32" height="18" fill="#F8F1F1" stroke="#E4D9D9"/>
<rect id="Rectangle 88" x="65.5" y="245.5" width="32" height="18" fill="#F8F1F1" stroke="#E4D9D9"/>
<rect id="Rectangle 106" x="524.5" y="245.5" width="32" height="18" fill="#F8F1F1" stroke="#E4D9D9"/>
<rect id="Rectangle 94" x="65.5" y="131.5" width="32" height="18" fill="#F8F1F1" stroke="#E4D9D9"/>
<rect id="Rectangle 107" x="524.5" y="131.5" width="32" height="18" fill="#F8F1F1" stroke="#E4D9D9"/>
<rect id="Rectangle 111" x="254.5" y="131.5" width="228" height="7.99999" transform="rotate(90 254.5 131.5)" fill="#F8F1F1" stroke="#E4D9D9"/>
<rect id="Rectangle 224" x="376.5" y="130.5" width="228" height="7.99999" transform="rotate(90 376.5 130.5)" fill="#F8F1F1" stroke="#E4D9D9"/>
<rect id="Rectangle 112" x="74.5" y="120.5" width="239" height="18" transform="rotate(90 74.5 120.5)" fill="#F8F1F1" stroke="#E4D9D9"/>
<rect id="Rectangle 223" x="523.5" y="130.5" width="425" height="11" transform="rotate(-180 523.5 130.5)" fill="#F8F1F1" stroke="#E4D9D9"/>
<rect id="Rectangle 225" x="367.5" y="169.5" width="111" height="38" transform="rotate(-180 367.5 169.5)" fill="#F1F3F8" stroke="#E4D9D9"/>
<rect id="Rectangle 95" x="45.5" y="119.5" width="52" height="11" fill="#F8F1F1" stroke="#E4D9D9"/>
<rect id="Rectangle 108" x="524.5" y="119.5" width="45" height="11" fill="#F8F1F1" stroke="#E4D9D9"/>
<circle id="Ellipse 74" cx="351" cy="260" r="5" fill="#D9D9D9"/>
<ellipse id="Ellipse 75" cx="341" cy="260.5" rx="10" ry="1.5" fill="#D9D9D9"/>
<rect id="Rectangle 80_2" x="256" y="169" width="112" height="190" fill="#9E8989"/>
</g>
</svg>
