<svg width="369" height="226" viewBox="0 0 369 226" fill="none" xmlns="http://www.w3.org/2000/svg">
<g id="cannon">
<g id="barrel">
<g id="Vector">
<path d="M147.255 123.054C121.617 126.285 111.469 97.6622 133.435 84.0742L155.493 70.4295C157.707 69.0598 160.117 67.982 162.635 67.2354L332.869 16.7498C343.488 13.6007 354.216 18.0442 357.352 26.8905C360.489 35.7368 354.949 45.928 344.71 50.1483L180.565 117.807C178.137 118.808 175.585 119.483 173 119.809L147.255 123.054Z" fill="url(#paint0_linear_38_829)"/>
<path d="M334.278 16.4445C333.721 14.7655 334.874 12.8642 336.853 12.1978L348.164 8.38855C350.143 7.72212 352.198 8.54291 352.755 10.2218L363.673 43.1547C364.229 44.8336 363.076 46.7349 361.097 47.4013L349.787 51.2105C347.808 51.877 345.752 51.0562 345.196 49.3773L334.278 16.4445Z" fill="url(#paint1_linear_38_829)"/>
<path d="M156.66 70.7685C156.103 69.0896 157.256 67.1883 159.235 66.5219L162.699 65.3552C164.678 64.6888 166.733 65.5095 167.29 67.1885L183.829 117.077C184.385 118.756 183.232 120.657 181.253 121.323L177.789 122.49C175.81 123.157 173.755 122.336 173.198 120.657L156.66 70.7685Z" fill="url(#paint2_linear_38_829)"/>
<path d="M113.804 111.385C113.247 109.706 114.4 107.804 116.379 107.138L119.843 105.971C121.822 105.305 123.877 106.126 124.434 107.805L125.196 110.103C125.752 111.782 124.599 113.683 122.621 114.35L119.156 115.516C117.178 116.183 115.122 115.362 114.566 113.683L113.804 111.385Z" fill="url(#paint3_linear_38_829)"/>
</g>
<path id="Rectangle 226" d="M151.733 128C151.733 112.536 164.269 100 179.733 100H285.733L282.824 110.184C280.373 118.76 272.773 124.852 263.87 125.378L151.733 132V128Z" fill="#7C6262"/>
<g id="Rectangle 227">
<path d="M85.6162 159.92L163.733 105L181.254 129.922L120.317 172.764C110.829 179.434 97.7299 177.15 91.0596 167.662L85.6162 159.92Z" fill="#7C6262"/>
<path d="M13.1889 179.704L111.104 176.232L107.648 150.629L32.9011 153.28C20.4928 153.72 11.1733 164.771 12.8341 177.076L13.1889 179.704Z" fill="#7C6262"/>
</g>
</g>
<g id="wheel">
<path id="Subtract" d="M210.733 56C246.632 56 275.733 85.1015 275.733 121C275.733 156.898 246.632 186 210.733 186C174.835 186 145.733 156.898 145.733 121C145.733 85.1015 174.835 56 210.733 56ZM210.233 67C180.134 67 155.733 91.4005 155.733 121.5C155.733 151.599 180.134 176 210.233 176C240.333 176 264.733 151.599 264.733 121.5C264.733 91.4005 240.333 67 210.233 67Z" fill="#B39A82"/>
<rect id="Rectangle 228" x="207.733" y="66" width="6" height="111" fill="#B39A82"/>
<rect id="Rectangle 230" x="169.44" y="84.2426" width="6" height="111" transform="rotate(-45 169.44 84.2426)" fill="#B39A82"/>
<rect id="Rectangle 229" x="265.733" y="118" width="6" height="111" transform="rotate(90 265.733 118)" fill="#B39A82"/>
<rect id="Rectangle 231" x="247.222" y="80" width="6" height="111" transform="rotate(45 247.222 80)" fill="#B39A82"/>
<circle id="Ellipse 78" cx="210.233" cy="121.5" r="9.5" fill="#ECDCB0"/>
</g>
</g>
<defs>
<linearGradient id="paint0_linear_38_829" x1="208.269" y1="42.5943" x2="230.033" y2="102.009" gradientUnits="userSpaceOnUse">
<stop stop-color="white"/>
<stop offset="1" stop-color="#737373"/>
</linearGradient>
<linearGradient id="paint1_linear_38_829" x1="345.076" y1="19.7066" x2="355.442" y2="49.3059" gradientUnits="userSpaceOnUse">
<stop stop-color="#EAEAEA"/>
<stop offset="1" stop-color="#737373"/>
</linearGradient>
<linearGradient id="paint2_linear_38_829" x1="165.418" y1="81.6371" x2="179.521" y2="121.907" gradientUnits="userSpaceOnUse">
<stop stop-color="#F8F8F8"/>
<stop offset="1" stop-color="#737373"/>
</linearGradient>
<linearGradient id="paint3_linear_38_829" x1="118.111" y1="106.555" x2="120.928" y2="114.92" gradientUnits="userSpaceOnUse">
<stop stop-color="#D9D9D9"/>
<stop offset="1" stop-color="#737373"/>
</linearGradient>
</defs>
</svg>
