<svg width="631" height="505" viewBox="0 0 631 505" fill="none" xmlns="http://www.w3.org/2000/svg">
<g id="stickhouse">
<rect id="Rectangle 67" x="115.5" y="359.981" width="416" height="71" fill="url(#paint0_linear_38_424)" stroke="black"/>
<rect id="Rectangle 71" x="115.5" y="431.981" width="416" height="72" fill="url(#paint1_linear_38_424)" stroke="black"/>
<path id="Rectangle 74" d="M453.606 76.9815L485.482 96.0176L485.49 96.0215L521.5 116.678V148.981H105.5V121.056L134.955 104.023H134.956L181.389 76.9815H453.606Z" fill="url(#paint2_linear_38_424)" stroke="black"/>
<path id="Rectangle 75" d="M327.706 5.98152L367.604 29.4327L367.615 29.4395L393.5 43.6973V76.9815H219.5V55.2178L253.387 36.6397L253.396 36.6348L306.634 5.98152H327.706Z" fill="url(#paint3_linear_38_424)" stroke="black"/>
<rect id="Rectangle 68" x="115.5" y="287.981" width="416" height="72" fill="url(#paint4_linear_38_424)" stroke="black"/>
<rect id="Rectangle 69" x="115.5" y="216.981" width="416" height="74" fill="url(#paint5_linear_38_424)" stroke="black"/>
<rect id="Rectangle 70" x="115.5" y="148.981" width="416" height="71" fill="url(#paint6_linear_38_424)" stroke="black"/>
<ellipse id="Ellipse 57" cx="114.5" cy="459.481" rx="49.5" ry="45" fill="#C7B0B0"/>
<ellipse id="Ellipse 61" cx="525.5" cy="459.481" rx="49.5" ry="45" fill="#C7B0B0"/>
<ellipse id="Ellipse 58" cx="114.5" cy="369.481" rx="49.5" ry="44" fill="#C7B0B0"/>
<ellipse id="Ellipse 62" cx="525.5" cy="369.481" rx="49.5" ry="44" fill="#C7B0B0"/>
<ellipse id="Ellipse 59" cx="114.5" cy="281.481" rx="49.5" ry="45" fill="#C7B0B0"/>
<ellipse id="Ellipse 63" cx="525.5" cy="281.481" rx="49.5" ry="45" fill="#C7B0B0"/>
<ellipse id="Ellipse 60" cx="114.5" cy="191.481" rx="49.5" ry="45" fill="#C7B0B0"/>
<ellipse id="Ellipse 64" cx="525.5" cy="191.481" rx="49.5" ry="45" fill="#C7B0B0"/>
<ellipse id="Ellipse 65" cx="114.5" cy="459.981" rx="39.5" ry="35.5" fill="url(#paint7_radial_38_424)"/>
<ellipse id="Ellipse 69" cx="524.5" cy="459.981" rx="39.5" ry="35.5" fill="url(#paint8_radial_38_424)"/>
<ellipse id="Ellipse 66" cx="114.5" cy="369.981" rx="39.5" ry="36.5" fill="url(#paint9_radial_38_424)"/>
<ellipse id="Ellipse 70" cx="524.5" cy="369.981" rx="39.5" ry="36.5" fill="url(#paint10_radial_38_424)"/>
<ellipse id="Ellipse 67" cx="114.5" cy="280.981" rx="39.5" ry="35.5" fill="url(#paint11_radial_38_424)"/>
<ellipse id="Ellipse 71" cx="524.5" cy="280.981" rx="39.5" ry="35.5" fill="url(#paint12_radial_38_424)"/>
<ellipse id="Ellipse 68" cx="114.5" cy="191.481" rx="39.5" ry="36" fill="url(#paint13_radial_38_424)"/>
<ellipse id="Ellipse 72" cx="524.5" cy="191.481" rx="39.5" ry="36" fill="url(#paint14_radial_38_424)"/>
<line id="Line 3" x1="164" y1="448.981" x2="404" y2="448.981" stroke="#535252"/>
<line id="Line 17" x1="154" y1="92.9815" x2="394" y2="92.9815" stroke="#535252"/>
<line id="Line 4" x1="324" y1="468.981" x2="476" y2="468.981" stroke="#535252"/>
<line id="Line 18" x1="314" y1="114.981" x2="465" y2="114.981" stroke="#535252"/>
<line id="Line 21" x1="273" y1="42.9815" x2="360" y2="42.9815" stroke="#535252"/>
<line id="Line 5" x1="209" y1="484.981" x2="417" y2="484.982" stroke="#535252"/>
<line id="Line 19" x1="198" y1="129.981" x2="406" y2="129.981" stroke="#535252"/>
<line id="Line 22" x1="251" y1="57.9815" x2="406" y2="57.9815" stroke="#535252"/>
<line id="Line 6" x1="268" y1="387.981" x2="476" y2="387.982" stroke="#535252"/>
<line id="Line 7" x1="164" y1="413.981" x2="372" y2="413.982" stroke="#535252"/>
<line id="Line 8" x1="164" y1="313.981" x2="372" y2="313.982" stroke="#535252"/>
<line id="Line 9" x1="235" y1="332.981" x2="443" y2="332.982" stroke="#535252"/>
<line id="Line 10" x1="219" y1="344.981" x2="428" y2="344.982" stroke="#535252"/>
<line id="Line 11" x1="164" y1="235.981" x2="372" y2="235.981" stroke="#535252"/>
<line id="Line 14" x1="260" y1="178.981" x2="468" y2="178.981" stroke="#535252"/>
<line id="Line 15" x1="180" y1="198.981" x2="388" y2="198.981" stroke="#535252"/>
<line id="Line 16" x1="192" y1="168.981" x2="400" y2="168.981" stroke="#535252"/>
<line id="Line 12" x1="196" y1="258.981" x2="404" y2="258.982" stroke="#535252"/>
<line id="Line 13" x1="209" y1="273.981" x2="417" y2="273.982" stroke="#535252"/>
<rect id="Rectangle 72" width="361.167" height="35.801" transform="matrix(0.869636 -0.493694 0.570187 0.821515 0 180.235)" fill="#575353"/>
<rect id="Rectangle 73" width="361.167" height="35.801" transform="matrix(-0.869636 -0.493694 -0.570187 0.821515 631 178.306)" fill="#575353"/>
<rect id="Rectangle 76" x="237" y="291.481" width="21" height="213" fill="#706464"/>
<rect id="Rectangle 77" x="369" y="291.481" width="21" height="213" fill="#706464"/>
<rect id="Rectangle 78" x="203" y="303.481" width="33" height="221" transform="rotate(-90 203 303.481)" fill="url(#paint15_linear_38_424)"/>
<rect id="Rectangle 79" x="257" y="303.481" width="112" height="201" fill="#F9F9F9"/>
<ellipse id="Ellipse 73" cx="358" cy="410.981" rx="7" ry="6.5" fill="#DAD6E4"/>
</g>
<defs>
<linearGradient id="paint0_linear_38_424" x1="323.5" y1="359.481" x2="323.5" y2="431.481" gradientUnits="userSpaceOnUse">
<stop stop-color="#B39591"/>
<stop offset="1" stop-color="#705C59"/>
</linearGradient>
<linearGradient id="paint1_linear_38_424" x1="323.5" y1="431.481" x2="323.5" y2="504.481" gradientUnits="userSpaceOnUse">
<stop stop-color="#B39591"/>
<stop offset="1" stop-color="#705C59"/>
</linearGradient>
<linearGradient id="paint2_linear_38_424" x1="313.5" y1="76.4815" x2="313.5" y2="149.481" gradientUnits="userSpaceOnUse">
<stop stop-color="#B39591"/>
<stop offset="1" stop-color="#705C59"/>
</linearGradient>
<linearGradient id="paint3_linear_38_424" x1="306.5" y1="5.48152" x2="306.5" y2="77.4815" gradientUnits="userSpaceOnUse">
<stop stop-color="#B39591"/>
<stop offset="1" stop-color="#705C59"/>
</linearGradient>
<linearGradient id="paint4_linear_38_424" x1="323.5" y1="287.481" x2="323.5" y2="360.481" gradientUnits="userSpaceOnUse">
<stop stop-color="#B39591"/>
<stop offset="1" stop-color="#705C59"/>
</linearGradient>
<linearGradient id="paint5_linear_38_424" x1="323.5" y1="216.481" x2="323.5" y2="291.481" gradientUnits="userSpaceOnUse">
<stop stop-color="#B39591"/>
<stop offset="1" stop-color="#705C59"/>
</linearGradient>
<linearGradient id="paint6_linear_38_424" x1="323.5" y1="148.481" x2="323.5" y2="220.481" gradientUnits="userSpaceOnUse">
<stop stop-color="#B39591"/>
<stop offset="1" stop-color="#705C59"/>
</linearGradient>
<radialGradient id="paint7_radial_38_424" cx="0" cy="0" r="1" gradientUnits="userSpaceOnUse" gradientTransform="translate(114.5 459.981) scale(39.5 35.5)">
<stop stop-color="#F4E3E3"/>
<stop offset="1" stop-color="#A79C9C"/>
</radialGradient>
<radialGradient id="paint8_radial_38_424" cx="0" cy="0" r="1" gradientUnits="userSpaceOnUse" gradientTransform="translate(524.5 459.981) scale(39.5 35.5)">
<stop stop-color="#F4E3E3"/>
<stop offset="1" stop-color="#A79C9C"/>
</radialGradient>
<radialGradient id="paint9_radial_38_424" cx="0" cy="0" r="1" gradientUnits="userSpaceOnUse" gradientTransform="translate(114.5 369.981) scale(39.5 36.5)">
<stop stop-color="#F4E3E3"/>
<stop offset="1" stop-color="#A79C9C"/>
</radialGradient>
<radialGradient id="paint10_radial_38_424" cx="0" cy="0" r="1" gradientUnits="userSpaceOnUse" gradientTransform="translate(524.5 369.981) scale(39.5 36.5)">
<stop stop-color="#F4E3E3"/>
<stop offset="1" stop-color="#A79C9C"/>
</radialGradient>
<radialGradient id="paint11_radial_38_424" cx="0" cy="0" r="1" gradientUnits="userSpaceOnUse" gradientTransform="translate(114.5 280.981) scale(39.5 35.5)">
<stop stop-color="#F4E3E3"/>
<stop offset="1" stop-color="#A79C9C"/>
</radialGradient>
<radialGradient id="paint12_radial_38_424" cx="0" cy="0" r="1" gradientUnits="userSpaceOnUse" gradientTransform="translate(524.5 280.981) scale(39.5 35.5)">
<stop stop-color="#F4E3E3"/>
<stop offset="1" stop-color="#A79C9C"/>
</radialGradient>
<radialGradient id="paint13_radial_38_424" cx="0" cy="0" r="1" gradientUnits="userSpaceOnUse" gradientTransform="translate(114.5 191.481) scale(39.5 36)">
<stop stop-color="#F4E3E3"/>
<stop offset="1" stop-color="#A79C9C"/>
</radialGradient>
<radialGradient id="paint14_radial_38_424" cx="0" cy="0" r="1" gradientUnits="userSpaceOnUse" gradientTransform="translate(524.5 191.481) scale(39.5 36)">
<stop stop-color="#F4E3E3"/>
<stop offset="1" stop-color="#A79C9C"/>
</radialGradient>
<linearGradient id="paint15_linear_38_424" x1="236" y1="413.981" x2="203" y2="413.981" gradientUnits="userSpaceOnUse">
<stop stop-color="#BEA1A1"/>
<stop offset="1" stop-color="#706464"/>
</linearGradient>
</defs>
</svg>
