<svg width="656" height="461" viewBox="0 0 656 461" fill="none" xmlns="http://www.w3.org/2000/svg">
<g id="strawhome">
<rect id="Rectangle 7" x="101" y="140" width="459" height="269" fill="#2C2A24"/>
<rect id="Rectangle 8" x="100.846" y="107" width="17" height="318" transform="rotate(14.1699 100.846 107)" fill="#A9A3A3"/>
<rect id="Rectangle 21" width="16.5992" height="310.503" transform="matrix(-0.969574 0.244798 0.244798 0.969574 564.989 115)" fill="#A9A3A3"/>
<rect id="Rectangle 9" x="117.261" y="107" width="17" height="318" transform="rotate(8.91159 117.261 107)" fill="#A9A3A3"/>
<rect id="Rectangle 22" width="16.5992" height="310.503" transform="matrix(-0.987929 0.15491 0.15491 0.987929 548.961 115)" fill="#A9A3A3"/>
<rect id="Rectangle 10" x="140.492" y="109.345" width="17" height="318" transform="rotate(5.74694 140.492 109.345)" fill="#A9A3A3"/>
<rect id="Rectangle 23" width="16.5992" height="310.503" transform="matrix(-0.994974 0.100135 0.100135 0.994974 526.278 117.29)" fill="#A9A3A3"/>
<rect id="Rectangle 11" x="159.957" y="115.886" width="17" height="318" transform="rotate(1.46864 159.957 115.886)" fill="#A9A3A3"/>
<rect id="Rectangle 31" width="18.2552" height="341.48" transform="matrix(-0.999671 0.0256298 0.0256298 0.999671 462.249 106)" fill="#A9A3A3"/>
<rect id="Rectangle 24" width="16.5992" height="310.503" transform="matrix(-0.999671 0.0256298 0.0256298 0.999671 507.272 123.677)" fill="#A9A3A3"/>
<rect id="Rectangle 12" x="126.414" y="117.444" width="17" height="318" transform="rotate(10.9441 126.414 117.444)" fill="#A9A3A3"/>
<rect id="Rectangle 25" width="16.5992" height="310.503" transform="matrix(-0.981813 0.189852 0.189852 0.981813 540.024 125.197)" fill="#A9A3A3"/>
<rect id="Rectangle 13" x="161.373" y="118" width="17" height="318" transform="rotate(10.9441 161.373 118)" fill="#A9A3A3"/>
<rect id="Rectangle 26" width="16.5992" height="310.503" transform="matrix(-0.981813 0.189852 0.189852 0.981813 505.889 125.741)" fill="#A9A3A3"/>
<rect id="Rectangle 14" x="198.373" y="119" width="17" height="318" transform="rotate(10.9441 198.373 119)" fill="#A9A3A3"/>
<rect id="Rectangle 27" width="16.5992" height="310.503" transform="matrix(-0.981813 0.189852 0.189852 0.981813 469.762 126.717)" fill="#A9A3A3"/>
<rect id="Rectangle 15" x="205.682" y="117.526" width="17" height="318" transform="rotate(4.19366 205.682 117.526)" fill="#A9A3A3"/>
<rect id="Rectangle 28" width="16.5992" height="310.503" transform="matrix(-0.997322 0.0731279 0.0731279 0.997322 462.625 125.278)" fill="#A9A3A3"/>
<rect id="Rectangle 16" x="224.034" y="119.227" width="17" height="318" transform="rotate(-0.205651 224.034 119.227)" fill="#A9A3A3"/>
<rect id="Rectangle 29" width="16.5992" height="310.503" transform="matrix(-0.999994 -0.00358927 -0.00358927 0.999994 444.706 126.939)" fill="#A9A3A3"/>
<rect id="Rectangle 17" x="244.177" y="119.598" width="17" height="318" transform="rotate(-2.66838 244.177 119.598)" fill="#A9A3A3"/>
<rect id="Rectangle 35" x="295.642" y="103.507" width="17" height="147.485" transform="rotate(38.4907 295.642 103.507)" fill="#A9A3A3"/>
<rect id="Rectangle 39" x="302.793" y="139" width="17" height="147.485" transform="rotate(38.4907 302.793 139)" fill="#A9A3A3"/>
<rect id="Rectangle 40" x="316.793" y="149" width="17" height="147.485" transform="rotate(38.4907 316.793 149)" fill="#A9A3A3"/>
<rect id="Rectangle 66" x="332" y="166.762" width="17" height="147.485" transform="rotate(-31.0267 332 166.762)" fill="#A9A3A3"/>
<rect id="Rectangle 36" x="333" y="108.749" width="17" height="147.485" transform="rotate(-48.5864 333 108.749)" fill="#A9A3A3"/>
<rect id="Rectangle 37" x="317" y="115.749" width="17" height="147.485" transform="rotate(-48.5864 317 115.749)" fill="#A9A3A3"/>
<rect id="Rectangle 38" x="313" y="139.749" width="17" height="147.485" transform="rotate(-48.5864 313 139.749)" fill="#A9A3A3"/>
<rect id="Rectangle 30" width="16.5992" height="310.503" transform="matrix(-0.998916 -0.0465551 -0.0465551 0.998916 425.037 127.301)" fill="#A9A3A3"/>
<rect id="Rectangle 18" x="163" y="127.791" width="17" height="318" transform="rotate(-2.66838 163 127.791)" fill="#A9A3A3"/>
<rect id="Rectangle 41" x="123" y="119.791" width="17" height="318" transform="rotate(-2.66838 123 119.791)" fill="#C7BEBE"/>
<rect id="Rectangle 42" x="101.514" y="122.096" width="17" height="318" transform="rotate(5.08299 101.514 122.096)" fill="#C7BEBE"/>
<rect id="Rectangle 45" x="411.918" y="142.683" width="17" height="318" transform="rotate(-7.66646 411.918 142.683)" fill="#C7BEBE"/>
<rect id="Rectangle 46" x="477" y="127.268" width="17" height="318" transform="rotate(-7.66646 477 127.268)" fill="#C7BEBE"/>
<rect id="Rectangle 47" x="518" y="143.268" width="17" height="318" transform="rotate(-7.66646 518 143.268)" fill="#C7BEBE"/>
<rect id="Rectangle 43" x="177.174" y="128" width="17" height="318" transform="rotate(5.08299 177.174 128)" fill="#C7BEBE"/>
<rect id="Rectangle 48" x="248.959" y="1" width="17" height="318" transform="rotate(51.5259 248.959 1)" fill="#C7BEBE"/>
<rect id="Rectangle 50" x="256" y="1" width="17" height="188" fill="#C7BEBE"/>
<rect id="Rectangle 53" x="312" width="17" height="188" fill="#C7BEBE"/>
<rect id="Rectangle 56" x="358" y="1" width="17" height="188" fill="#C7BEBE"/>
<rect id="Rectangle 59" x="280.135" y="12.5191" width="17" height="188" transform="rotate(35.4782 280.135 12.5191)" fill="#C7BEBE"/>
<rect id="Rectangle 51" x="286" y="4" width="17" height="188" fill="#C7BEBE"/>
<rect id="Rectangle 54" x="332" y="1" width="17" height="188" fill="#C7BEBE"/>
<rect id="Rectangle 57" x="343.674" y="11.8917" width="17" height="188" transform="rotate(-21.8171 343.674 11.8917)" fill="#C7BEBE"/>
<rect id="Rectangle 60" x="244" y="1" width="17" height="188" fill="#C7BEBE"/>
<rect id="Rectangle 52" x="237.311" y="11.938" width="17" height="298.341" transform="rotate(42.5249 237.311 11.938)" fill="#C7BEBE"/>
<rect id="Rectangle 62" x="272.652" y="6" width="17" height="298.341" transform="rotate(42.5249 272.652 6)" fill="#C7BEBE"/>
<rect id="Rectangle 63" x="326.652" width="17" height="298.341" transform="rotate(42.5249 326.652 0)" fill="#C7BEBE"/>
<rect id="Rectangle 64" x="368" y="26.5665" width="17" height="298.341" transform="rotate(-52.9422 368 26.5665)" fill="#C7BEBE"/>
<rect id="Rectangle 65" x="350.66" y="23.8992" width="17" height="298.341" transform="rotate(-47.3682 350.66 23.8992)" fill="#C7BEBE"/>
<rect id="Rectangle 55" x="324" y="21.4443" width="17" height="188" transform="rotate(-22.2764 324 21.4443)" fill="#C7BEBE"/>
<rect id="Rectangle 58" x="343.18" y="26.0079" width="17" height="188" transform="rotate(-36.9676 343.18 26.0079)" fill="#C7BEBE"/>
<rect id="Rectangle 61" x="306.34" y="6.89161" width="17" height="188" transform="rotate(26.1775 306.34 6.89161)" fill="#C7BEBE"/>
<rect id="Rectangle 49" x="392.403" y="17.1439" width="17" height="318" transform="rotate(-52.6448 392.403 17.1439)" fill="#C7BEBE"/>
<rect id="Rectangle 44" x="216.132" y="113.63" width="14.8775" height="329.363" transform="rotate(0.546494 216.132 113.63)" fill="#C7BEBE"/>
<rect id="Rectangle 32" width="18.2552" height="341.48" transform="matrix(-0.998916 -0.0465551 -0.0465551 0.998916 436.133 119.85)" fill="#A9A3A3"/>
<rect id="Rectangle 19" x="106" y="128.791" width="17" height="318" transform="rotate(-2.66838 106 128.791)" fill="#A9A3A3"/>
<rect id="Rectangle 33" width="18.2552" height="341.48" transform="matrix(-0.998916 -0.0465551 -0.0465551 0.998916 503 106.858)" fill="#A9A3A3"/>
<rect id="Rectangle 20" x="199" y="128.791" width="17" height="318" transform="rotate(-2.66838 199 128.791)" fill="#A9A3A3"/>
<rect id="Rectangle 34" width="18.2552" height="324.219" transform="matrix(-0.998916 -0.0465551 -0.0465551 0.998916 403.329 120.093)" fill="#A9A3A3"/>
</g>
</svg>
